<?xml version="1.0"?>
<svg xmlns:rdf="http://www.w3.org/1999/02/22-rdf-syntax-ns#" xmlns="http://www.w3.org/2000/svg" xmlns:sodipodi="http://inkscape.sourceforge.net/DTD/sodipodi-0.dtd" xmlns:cc="http://web.resource.org/cc/" xmlns:xlink="http://www.w3.org/1999/xlink" xmlns:dc="http://purl.org/dc/elements/1.1/" xmlns:svg="http://www.w3.org/2000/svg" id="svg18773" sodipodi:version="0.32" height="297mm" width="210mm" sodipodi:docname="dogface3.svg" sodipodi:docbase="/home/theobroma">
  <sodipodi:namedview id="base" bordercolor="#666666" borderopacity="1.0" pagecolor="#ffffff"/>
  <path id="path28733" stroke="#121212" d="m566.78 975.69c-5.87-2.84-14.68-5.47-18.3-5.46-2.78 0-16.38-4.82-19.7-7-1.38-0.89-5.53-3.15-9.23-5.01-8.02-4.03-14.99-10.81-19.2-18.65-1.69-3.15-3.52-5.87-4.07-6.04-0.56-0.17-3.54 2.1-6.63 5.05-3.1 2.95-6.91 5.68-8.47 6.08-1.56 0.39-4.63 2.02-6.82 3.63s-4.38 2.93-4.87 2.93c-0.5 0-2.16 0.9-3.7 1.99-1.53 1.09-6.78 3.38-11.65 5.09-20.84 7.28-22.03 7.42-63.36 7.4-55.77-0.04-62.99-0.66-80.43-6.92-5.46-1.96-10.6-3.56-11.42-3.56-1.84 0-13.59-5.58-17.58-8.36-1.61-1.11-5.88-3.54-9.48-5.38-3.6-1.85-9.11-5.59-12.24-8.31-5.13-4.46-8.85-6.22-8.85-4.2-0.01 0.41-2.83 3.71-6.28 7.33-5.93 6.22-6.82 6.77-16.15 9.85-6.31 2.08-11.15 3.1-13.42 2.84-3.03-0.35-4.54 0.34-10.59 4.89-8.05 6.04-13.06 7.97-23.18 8.91-12.44 1.16-25.26-3.46-39.44-14.21-3.87-2.93-6.49-5.98-8.6-10.01-2.56-4.89-3.57-5.91-6.44-6.51-6.43-1.34-22.36-7.95-27.881-11.57-3.036-1.99-8.52-6.69-12.185-10.43-5.846-5.98-6.972-7.77-9.164-14.58-1.374-4.27-2.764-9.56-3.089-11.76s-0.873-5.52-1.218-7.37-0.076-5.9 0.598-9c1.563-7.18 6.784-21.12 8.732-23.31 1.337-1.51 1.204-2.41-1.264-8.5-8.261-20.41-8.559-33.6-1.265-55.82 3.419-10.42 9.155-18.92 16.528-24.5 3.628-2.75 6.968-5 7.408-5 0.45 0 2.47-1.13 4.5-2.5 2.03-1.38 5.41-3.02 7.52-3.66 2.11-0.63 4.08-1.91 4.38-2.84 0.6-1.9 12.31-13.75 15.16-15.36 4.05-2.27 17.01-6.63 19.72-6.64 3.21 0 3.15 1.36 0.62-13.5-0.47-2.75-0.89-8.15-0.93-12-0.05-4.55-0.81-8.93-2.17-12.5-1.16-3.02-2.77-9.55-3.59-14.5-0.81-4.95-2.07-12.6-2.8-17s-1.86-11.33-2.49-15.4c-0.82-5.17-1.02-20.8-0.69-52 0.52-47.72 0.84-57.29 2.6-77.6 0.62-7.15 1.29-17.95 1.48-24 0.46-13.96 2.33-33.08 3.62-37.06 0.55-1.69 1.43-5.96 1.95-9.5 0.53-3.54 1.34-8.83 1.82-11.76l0.86-5.31-3.58-1.86c-1.97-1.01-5.82-4.13-8.54-6.93-3.08-3.14-5.83-5.08-7.23-5.08-8.87 0-32.14-18.36-35.58-28.07-0.865-2.44-2.321-6.9-3.237-9.93-1.731-5.72-4.25-8.57-10.524-11.93-3.702-1.98-18.971-17.32-18.971-19.06 0-0.55-1.519-2.69-3.376-4.76-1.857-2.06-5.25-7.35-7.539-11.75-3.907-7.51-4.228-8.76-5.208-20.39-1.491-17.67 0.461-24.21 9.994-33.52 4.802-4.69 9.107-7.51 17.369-11.35 2.459-1.14 3.752-2.42 3.776-3.74 0.389-21.28 0.478-22.08 2.997-27.05 2.32-4.57 2.501-5.91 2.352-17.43-0.225-17.5 1.316-22.14 11.003-33.15 4.044-4.61 8.434-9.3 9.744-10.44 3.98-3.45 14.65-9.29 19.15-10.47 13.88-3.66 14.53-4.02 17.26-9.6 3.89-7.94 11.39-14.19 22.04-18.36l8.94-3.5 21.5 0.06c23.05 0.07 34.56 1.2 42.51 4.15l4.99 1.86 6.67-2.71c3.67-1.49 7.72-3.4 9-4.24 1.28-0.83 4.8-2.19 7.83-3.02 3.02-0.83 8.35-2.43 11.84-3.55 5.41-1.75 8.93-2.05 24.14-2.05 17.63 0 17.88 0.03 25 3.06 8.2 3.49 10.09 3.37 18.7-1.16 3.04-1.59 6.39-2.9 7.44-2.9 1.06 0 4.5-0.92 7.65-2.05 8.48-3.03 37.39-5.46 46.73-3.92 20.09 3.31 23.22 4.64 30.97 13.2l5.47 6.05 18.78-0.07c16.01-0.05 19.61 0.22 24.49 1.86 3.15 1.06 6.81 1.93 8.13 1.93 3.41 0 9.81 2.41 14.31 5.39 2.12 1.4 6.51 3.46 9.75 4.58 3.25 1.12 7.33 3.11 9.07 4.44 2.7 2.06 4.95 2.57 15.32 3.45 6.68 0.57 13.03 1.51 14.11 2.09s3.3 1.05 4.93 1.05 5.98 0.93 9.68 2.08c5.52 1.7 7.8 3.12 12.81 8 6.79 6.6 8.13 6.94 18.88 4.72 6.59-1.36 13.99-0.29 21.18 3.08 2.27 1.06 5.92 2.49 8.12 3.17 9.76 3.06 15.45 8.83 22.04 22.37 5 10.29 6.64 19.68 4.67 26.8-1 3.59-0.92 3.8 2.35 5.82 5.4 3.34 11.07 10.54 13.99 17.76 5.4 13.37 6.23 16.74 6.85 27.7 0.56 9.89 0.38 11.68-1.72 17.75l-2.33 6.75 2.96 5.75c4.08 7.94 9.69 25.4 9.69 30.19 0 2.17-1.09 7.47-2.42 11.76-1.32 4.29-2.71 9.27-3.08 11.08-0.37 1.8-2.1 5.43-3.84 8.07s-4.04 6.49-5.12 8.56c-2.58 4.98-11.6 13.12-16.22 14.65-2.03 0.67-6.5 2.53-9.95 4.15-5.24 2.45-6.6 3.63-8.36 7.26-4.85 10.02-20.96 20.3-33.27 21.24-3.43 0.26-8.06 0.05-10.29-0.47-3.65-0.84-4.37-0.67-7.28 1.75l-3.22 2.7 1.14 7.4c0.62 4.08 1.53 8.44 2.02 9.71 0.49 1.26 0.89 3.75 0.89 5.54 0 1.78 0.67 5.81 1.48 8.94 1.78 6.83 3.58 24.07 4.09 39.22 0.2 6.05 0.8 16.85 1.33 24 1.82 24.55 2.26 40.09 2.39 83.5 0.12 41.03 0 44.27-2.16 57-1.26 7.43-2.88 17.33-3.61 22-0.72 4.68-2.2 10.75-3.28 13.5-1.34 3.43-2.15 8.64-2.56 16.61l-0.59 11.6 3.82 1.15c2.1 0.63 5.06 1.14 6.58 1.14s6.94 1.79 12.05 3.97c20.87 8.91 33.5 20.31 37.54 33.88 0.73 2.46 2.33 5.03 3.67 5.91 1.3 0.85 4.82 4.74 7.82 8.64 3 3.91 6.57 8.49 7.95 10.2 1.37 1.7 4.29 8.19 6.49 14.42 3.46 9.84 3.99 12.47 3.99 19.91 0 9.3-3.33 21.79-7.34 27.51-1.92 2.73-2.04 4.12-1.77 20.76 0.15 9.83-0.18 19.96-0.75 22.57-0.57 2.6-1.77 8.07-2.66 12.15-1.97 9.04-4.21 13.54-8.9 17.91-2.59 2.4-3.58 4.18-3.58 6.36 0 1.66-1.16 6.81-2.57 11.45-2.69 8.81-5.15 12.15-13.9 18.86-2.15 1.65-5.51 4.4-7.47 6.12-4.72 4.14-12.22 7.84-25.47 12.57-9.85 3.51-12.13 3.94-23.5 4.42-12.13 0.51-12.79 0.43-18.09-2.14z"/>
  <path id="path28735" stroke="#000" fill="#fff" d="m606.1 970.52c11.78-4.24 20.88-8.42 21.89-10.04 0.35-0.56 3.95-3.52 8.01-6.57 9.41-7.09 13.25-11.49 14.13-16.22 0.39-2.07 1.31-5.22 2.05-6.99s1.35-4.94 1.35-7.05c0-3.14 0.71-4.52 3.97-7.71 8.33-8.13 11.5-20.87 11.58-46.52 0.03-9.63-0.33-18.59-0.79-19.92-0.68-1.96-0.28-2.99 2.14-5.5 1.87-1.94 3.94-6.05 5.57-11.08 2.23-6.84 2.56-9.4 2.27-17.65-0.18-5.3-0.82-10.25-1.42-11-0.6-0.74-1.43-2.93-1.84-4.85-0.4-1.93-1.36-4.39-2.11-5.47-0.76-1.09-1.37-2.75-1.37-3.69 0-0.95-1.8-3.8-4-6.34s-4-5.01-4-5.48c0-0.48-3.08-4.04-6.84-7.92-4.69-4.84-7.23-8.39-8.1-11.28-1.81-6.03-8.01-14.7-13.69-19.11-6.81-5.3-13.64-9.67-15.14-9.69-0.7-0.01-3.83-1.39-6.95-3.05-9.13-4.88-28.4-6.44-43.78-3.55-9.46 1.77-11.06 2.52-18.25 8.6-6.75 5.71-10.25 11.56-10.25 17.11 0 1.92-0.9 5.36-2 7.63-1.1 2.28-2 4.82-2 5.66 0 0.83-1.01 3.44-2.24 5.8-1.29 2.46-2.73 7.9-3.38 12.78-0.62 4.67-2.05 11.2-3.17 14.5-2.33 6.83-4.06 14.97-5.26 24.75-0.46 3.71-1.76 10.13-2.89 14.26-1.14 4.13-2.06 8.69-2.06 10.14 0 2.81-3.8 11.39-5.55 12.54-0.58 0.37-2.12 3.07-3.42 6-3.82 8.57-6.92 14.85-10.97 22.24-3.29 6-3.89 8.08-4.41 15.5-0.78 11.08 0.5 20.2 3.8 27.07 8.77 18.24 11.86 21.83 23.69 27.5 3.82 1.83 7.52 3.8 8.21 4.38 2.28 1.89 16.09 7.11 18.82 7.11 4.22 0.01 13.87 2.78 19.33 5.55 4.73 2.41 5.61 2.52 16.57 2.02 10.2-0.47 12.88-1 22.5-4.46z"/>
  <path id="path28737" d="m549.03 960.42c0.34-0.55 0.81-1 1.06-1 0.24 0 0.44 0.45 0.44 1s-0.48 1-1.06 1c-0.59 0-0.78-0.45-0.44-1z"/>
  <path id="path28739" d="m614.53 959.42c0-0.55 0.47-1 1.06-1 0.58 0 0.78 0.45 0.44 1s-0.82 1-1.06 1c-0.25 0-0.44-0.45-0.44-1z"/>
  <path id="path28741" d="m541.53 958.42c0-0.55 0.45-1 1-1s1 0.45 1 1-0.45 1-1 1-1-0.45-1-1z"/>
  <path id="path28743" d="m530.53 953.42c0-0.55 0.45-1 1-1s1 0.45 1 1-0.45 1-1 1-1-0.45-1-1z"/>
  <path id="path28745" d="m625.69 952.63c0.71-1.68 9.91-9.47 10.49-8.89 1.02 1.02-2.55 5.64-5.96 7.72-3.35 2.05-5.09 2.5-4.53 1.17z"/>
  <path id="path28747" d="m515.87 945.17c-8.47-9.2-17.34-26.43-17.34-33.67 0-4.62 1.46-3.71 2.69 1.67 1.42 6.18 5.41 16.47 6.88 17.75 0.63 0.55 2.83 3.59 4.89 6.75 2.05 3.16 5.04 6.68 6.64 7.82 3.1 2.21 3.77 3.93 1.52 3.93-0.75 0-3.13-1.91-5.28-4.25z"/>
  <path id="path28749" d="m643.03 930.42c0.34-0.55 0.81-1 1.06-1 0.24 0 0.44 0.45 0.44 1s-0.48 1-1.06 1c-0.59 0-0.78-0.45-0.44-1z"/>
  <path id="path28751" d="m504.53 889.42c0-0.55 0.45-1 1-1s1 0.45 1 1-0.45 1-1 1-1-0.45-1-1z"/>
  <path id="path28753" d="m653.53 889.42c0-0.55 0.45-1 1-1s1 0.45 1 1-0.45 1-1 1-1-0.45-1-1z"/>
  <path id="path28755" d="m659.02 871.67c0.43-3.16 0.78-7.33 0.78-9.25 0-1.93-0.35-6.09-0.78-9.25-0.51-3.77-0.42-5.75 0.25-5.75 2.3 0 3.24 18.64 1.3 25.82-1.61 6-2.45 5.15-1.55-1.57z"/>
  <path id="path28757" d="m663.28 840.74c1.23-0.86 2.25-2.19 2.25-2.94 0-0.76 0.67-1.38 1.5-1.38 1.77 0 1.79 0.11 0.52 3.43-0.73 1.93-1.67 2.55-3.75 2.52l-2.77-0.06 2.25-1.57z"/>
  <path id="path28759" stroke-linejoin="round" d="m373.19 800.35l5.4-1.59c2.93-0.85 5.94-2.25 6.72-3.13 0.01 0 0.03-0.02 0.03-0.03 0.73-0.87 3-2.62 5.03-3.9 2.04-1.29 4.5-3.2 5.5-4.22 2.24-2.29 15.2-12.48 17.47-13.75 1.46-0.81 21-18.07 29.1-25.69 1.5-1.42 3.08-2.61 3.65-2.75 0.03-0.01 0.07 0 0.1 0h0.03c0.05 0 0.13-0.02 0.19-0.03 0.07-0.02 0.17-0.04 0.25-0.06 2.26-0.88 5.83-7.42 8.43-15.63 4.8-15.14 4.07-19.2-4.22-23.44-5.8-2.97-9.51-3.82-22.18-5-22.86-2.12-91.35-3.4-98.63-1.84-2.95 0.63-8.07 1.49-11.37 1.91-5.63 0.7-8.94 1.77-12.5 4.03-0.83 0.52-3.1 1.22-5.07 1.53-4.47 0.71-11.5 5.76-13.59 9.81-1.95 3.78-2.76 14.6-1.34 17.85 2.3 5.28 4.78 8.45 7.75 9.96 1.71 0.88 4.31 3.01 5.78 4.75 1.45 1.73 3.25 3.14 4.03 3.16h0.06c0.95 0.19 6.08 4.36 11.6 9.44 9.99 9.19 11.84 10.67 22.28 17.94 2.75 1.91 6.32 4.87 7.93 6.56 1.62 1.68 3.5 3.06 4.19 3.06 1.68 0 5.22 1.6 8.88 4 1.65 1.08 4.91 2.97 7.25 4.19l4.25 2.22 3 0.65z" sodipodi:nodetypes="ccsssssssssssssssssssssssssssssccc" stroke="#000" stroke-linecap="round" stroke-width="4.2"/>
  <path id="path28761" stroke="#000" fill="#fff" d="m361.34 961.11c1.32-1.4 2.43-4.25 2.82-7.25 0.35-2.72 0.98-5.39 1.4-5.94s1.09-5.5 1.48-11c0.4-5.5 1.15-10.53 1.67-11.18 2.48-3.09 5.15-88.39 2.84-90.69-0.62-0.63-1.02-7.91-1.02-18.63v-17.6l-4.25-2.22c-2.34-1.21-5.6-3.1-7.25-4.18-3.66-2.4-7.21-4-8.88-4-0.69 0-2.57-1.38-4.19-3.07-1.61-1.69-5.18-4.63-7.93-6.55-10.44-7.26-12.27-8.74-22.27-17.94-5.65-5.19-10.9-9.44-11.66-9.44-0.77 0-2.59-1.42-4.06-3.16-1.46-1.74-4.06-3.88-5.78-4.75-2.97-1.51-5.44-4.69-7.75-9.98-1.41-3.24-0.59-14.04 1.37-17.82 2.09-4.05 9.1-9.13 13.58-9.83 1.96-0.32 4.24-1 5.07-1.52 3.56-2.25 6.87-3.32 12.5-4.03 3.3-0.41 8.41-1.27 11.36-1.9 7.28-1.55 75.78-0.28 98.64 1.84 12.67 1.18 16.38 2.01 22.18 4.98 8.28 4.24 9.02 8.32 4.22 23.46-2.79 8.83-6.7 15.71-8.92 15.71-0.45 0-2.14 1.24-3.75 2.75-8.1 7.62-27.62 24.86-29.08 25.67-2.27 1.27-15.23 11.49-17.47 13.78-1 1.02-3.48 2.91-5.51 4.19-2.04 1.29-4.3 3.05-5.02 3.93-0.73 0.87-3.76 2.29-6.74 3.16l-5.41 1.57v16.42c0 9.86 0.4 16.66 1 17.03 1.24 0.77 1.38 66.14 0.14 66.91-0.47 0.29-1.09 6.35-1.38 13.46s-0.91 13.54-1.39 14.28-1.44 6.52-2.13 12.85c-1.35 12.39-1.69 14.68-2.53 17-0.29 0.82-0.76 2.51-1.03 3.74l-0.49 2.25 30.65-0.32c20.15-0.22 32.37-0.76 35.66-1.58 6.96-1.74 18.8-5.39 20-6.17 0.55-0.35 2.29-0.96 3.88-1.34 1.58-0.37 4.5-1.79 6.48-3.13 1.98-1.35 3.98-2.45 4.44-2.45s2.72-1.27 5.02-2.82 5.75-3.45 7.68-4.23c1.92-0.77 5.86-3.72 8.74-6.56l5.25-5.17-1.65-4.36c-1.23-3.26-1.65-7.78-1.66-17.86-0.01-14.85 0.39-16.36 8.09-30 2.02-3.58 4.64-8.84 5.82-11.7 1.17-2.85 3.81-7.71 5.85-10.79 2.56-3.85 3.99-7.38 4.58-11.31 0.47-3.13 1.59-8.4 2.48-11.7 0.9-3.3 2.01-8.93 2.46-12.5 1.2-9.58 2.92-17.57 5.6-26 1.31-4.13 2.68-10.43 3.06-14 0.37-3.58 1.55-8.53 2.62-11 3.82-8.86 6.76-17.79 6.78-20.62 0.03-4.2 3.2-10.38 7.35-14.33 5.77-5.48 5.44-7.17-6.01-30.55-5.6-11.45-11.28-18.52-18.86-23.48-3.3-2.15-7.13-4.78-8.5-5.83-3.39-2.58-8.59-5.19-10.34-5.19-0.79 0-2.72-0.67-4.3-1.5-1.57-0.82-3.79-1.49-4.91-1.5-1.13 0-2.48-0.43-3-0.94-0.93-0.92-4.99-1.76-22.45-4.66-23.13-3.83-37.67-5.65-49.5-6.22-17.53-0.83-81.04-0.78-91 0.08-4.4 0.38-12.73 1.1-18.5 1.59-8.8 0.75-12.46 1.64-22.5 5.5-6.6 2.53-14.93 5.31-18.5 6.17-11.87 2.87-17.48 4.78-19.57 6.64-1.13 1.01-2.52 1.84-3.07 1.84-1.67 0-14.75 11.76-16.38 14.73-0.84 1.52-3.87 6.32-6.75 10.66s-5.23 8.32-5.23 8.85-1.13 2.31-2.5 3.94c-1.38 1.63-2.5 3.57-2.5 4.31s-1.07 3.52-2.37 6.18c-4.43 9.02-4.27 10.27 2.17 16.97 4.74 4.93 6.33 7.56 9.49 15.76 2.42 6.28 3.74 11.33 3.66 13.97-0.17 5.48 1.94 39.27 2.66 42.55 0.31 1.42 1.59 5.95 2.84 10.08 2.64 8.66 4.16 15.42 5.05 22.5 0.47 3.69 1.89 6.84 5.43 12.03 2.63 3.86 6.02 10.61 7.51 15 1.5 4.38 3.92 10.44 5.39 13.47 2.36 4.88 2.65 6.63 2.6 15.5-0.04 5.5-0.57 12.86-1.19 16.36-1.11 6.29-1.09 6.4 1.57 8.63 8.37 7.02 12.34 9.76 18.14 12.51 3.55 1.68 7.15 3.68 8 4.44 3.04 2.71 11.66 6.82 18.05 8.59 3.57 1 9.8 3 13.84 4.46 9.72 3.5 16.49 4.58 29.13 4.67 5.76 0.04 11.38 0.44 12.5 0.89 3.18 1.29 4.03 1.11 6.34-1.36z"/>
  <path id="path28763" d="m383.78 957.73c-4.54-0.22-8.25-0.83-8.25-1.37 0-0.62 7.52-0.88 20.25-0.71 11.13 0.15 21.93-0.09 24-0.53 3.87-0.82 5.23 0.43 2 1.85-1.99 0.87-25.6 1.34-38 0.76z"/>
  <path id="path28765" d="m325.53 955.42c0-0.55 0.45-1 1-1s1 0.45 1 1-0.45 1-1 1-1-0.45-1-1z"/>
  <path id="path28767" d="m313.53 952.42c0-0.55 0.45-1 1-1s1 0.45 1 1-0.45 1-1 1-1-0.45-1-1z"/>
  <path id="path28769" d="m429.53 952.42c0-0.55 0.45-1 1-1s1 0.45 1 1-0.45 1-1 1-1-0.45-1-1z"/>
  <path id="path28771" d="m306.03 949.42c0.34-0.55 0.81-1 1.06-1 0.24 0 0.44 0.45 0.44 1s-0.48 1-1.06 1c-0.59 0-0.78-0.45-0.44-1z"/>
  <path id="path28773" d="m437.03 949.42c0.34-0.55 0.81-1 1.06-1 0.24 0 0.44 0.45 0.44 1s-0.48 1-1.06 1c-0.59 0-0.78-0.45-0.44-1z"/>
  <path id="path28775" d="m442.53 948.42c0-0.55 0.45-1 1-1s1 0.45 1 1-0.45 1-1 1-1-0.45-1-1z"/>
  <path id="path28777" d="m290.03 944.73c-3.85-1.91-9.42-5.13-12.37-7.15-2.95-2.01-6.09-4.11-6.96-4.66-0.88-0.55-3.06-2.58-4.84-4.5-4.59-4.97-1.58-5.18 3.32-0.24 4.86 4.89 12.76 9.95 23.75 15.19 4.73 2.26 8.6 4.32 8.6 4.58 0 1.35-5.31-0.13-11.5-3.22z"/>
  <path id="path28779" d="m325.53 776.42c0-0.55 0.45-1 1-1s1 0.45 1 1-0.45 1-1 1-1-0.45-1-1z" fill="#fff"/>
  <path id="path28781" d="m317.12 769.92c-2.02-1.38-4-2.52-4.39-2.54s-2.26-1.37-4.17-3c-2.74-2.35-3.07-2.96-1.57-2.96 2.11 0 15.54 8.74 15.54 10.12 0 1.46-1.54 1-5.41-1.62z"/>
  <path id="path28783" d="m432.53 696.83c-1.38-0.76-3.65-1.39-5.05-1.4-1.41-0.01-3.12-0.57-3.8-1.26-0.85-0.85-4.64-1.24-11.81-1.2-5.8 0.03-9.72-0.28-8.7-0.68 6.9-2.72 34.36 1.47 34.36 5.24 0 1.23-2.04 0.95-5-0.7z"/>
  <path id="path28785" stroke="#000" fill="#fff" d="m192.18 957.24c2.28-1.07 4.94-2.82 5.91-3.89 0.96-1.06 2.21-1.93 2.79-1.93 0.57 0 2.31-1.22 3.87-2.72 2.4-2.29 3.6-2.68 7.79-2.5 2.72 0.12 6.65-0.4 8.72-1.16s5.79-1.98 8.27-2.71c3.32-0.99 6.16-3.05 10.84-7.87 3.49-3.6 6.95-7.44 7.7-8.54 1.86-2.75 3.58-12.34 4.02-22.45 0.35-7.8 0.12-9.01-2.95-16-1.83-4.15-4.36-10.7-5.61-14.55s-3.23-8.21-4.39-9.69c-5.09-6.48-7.71-11.88-8.24-17-0.3-2.92-1.16-6.95-1.91-8.95-0.74-2-1.1-3.89-0.79-4.2 0.51-0.51-0.74-4.88-4.19-14.66-1.44-4.07-3.19-26.58-3.46-44.5-0.1-6.64-0.62-9.05-3.07-14.19-1.62-3.4-2.95-6.82-2.95-7.58 0-0.77-3.18-5.03-7.07-9.46-5.41-6.17-8.52-8.77-13.25-11.08-15.38-7.5-19.19-8.47-33.68-8.58-8.92-0.07-11.49 0.3-17.06 2.42-7.26 2.77-19.03 12.28-21.16 17.1-0.92 2.07-2.74 3.35-7.03 4.96-3.19 1.19-6.05 2.57-6.35 3.07-0.31 0.5-2.45 1.79-4.75 2.87-9.3 4.37-20.491 17.66-22.011 26.13-0.263 1.46-0.965 3.57-1.56 4.68-0.596 1.12-1.083 3.13-1.083 4.47s-0.675 4.06-1.5 6.03c-3.686 8.83-0.196 31.93 6.567 43.47l1.942 3.32-2.41 4.18c-5.518 9.59-10.408 26.29-9.174 31.34 0.383 1.57 0.913 4.2 1.177 5.85s1.474 6.35 2.689 10.44c1.98 6.68 2.935 8.19 9.209 14.6 7.122 7.28 14.084 12.56 19.174 14.55 10.17 3.98 19.18 6.9 21.33 6.92 2.06 0.01 3 1.06 5.36 5.98 1.88 3.92 4.62 7.46 8 10.33 5.82 4.96 17.39 11.24 24.42 13.25 6.36 1.82 20.28 0.88 25.87-1.75z"/>
  <path id="path28787" d="m166.53 952.48c-2.79-0.63-1.8-0.83 4.79-0.93 10.06-0.16 14.67-2.15 21.24-9.17l4.54-4.84 9.83 0.3c5.41 0.17 11.59-0.14 13.75-0.69 3.88-0.98 8.3-4.47 10.48-8.26 0.62-1.09 1.44-1.68 1.82-1.31 0.98 0.92-1.77 5.88-4.86 8.76-2.41 2.26-3.51 2.45-16.13 2.88l-13.55 0.46-3.52 4.3c-1.94 2.37-5.37 5.27-7.63 6.44-4.53 2.36-14.92 3.39-20.76 2.06z"/>
  <path id="path28789" d="m158.53 947.42c0-0.55 0.45-1 1-1s1 0.45 1 1-0.45 1-1 1-1-0.45-1-1z"/>
  <path id="path28791" d="m235.53 925.36c0-0.58 0.45-0.78 1-0.44s1 0.81 1 1.06c0 0.24-0.45 0.44-1 0.44s-1-0.48-1-1.06z"/>
  <path id="path28793" d="m128.53 918.42c0-0.55 0.45-1 1-1s1 0.45 1 1-0.45 1-1 1-1-0.45-1-1z"/>
  <path id="path28795" d="m116.53 915.42c0-0.55 0.45-1 1-1s1 0.45 1 1-0.45 1-1 1-1-0.45-1-1z"/>
  <path id="path28797" d="m106.53 913.11c-1.38-0.64-3.4-1.99-4.5-3-1.1-1-3.447-2.72-5.212-3.81-8.575-5.32-16-28-13.853-42.32 1.143-7.63 2.203-5.1 1.76 4.19-0.356 7.46-0.037 9.88 2.165 16.44 1.421 4.23 3.955 9.92 5.631 12.64 3.186 5.18 11.199 11.94 16.759 14.13 1.78 0.7 3.25 1.68 3.25 2.16 0 1.2-2.98 0.99-6-0.43z"/>
  <path id="path28799" d="m191.5 740.67c-2.85-2.02-8.25-4.21-12.22-4.96-3.58-0.67-3.56-2.29 0.03-2.29 3.22 0 15.42 5.91 15.99 7.75 0.55 1.74-0.89 1.56-3.8-0.5z"/>
  <path id="path28801" d="m417.1 764.37c3.75-2.1 10.43-8.57 10.43-10.09 0-2.01-3.28-0.59-6.99 3.01-2.2 2.14-5.35 4.44-7.01 5.12-3 1.25-3.59 2.09-2.34 3.34 1.04 1.04 2.01 0.82 5.91-1.38z" fill="#fff"/>
  <path id="path28803" stroke="#000" fill="#fff" d="m202.87 728.43c0.33-1.64 2.36-6.58 4.52-10.97l3.92-8-1.3-7.46c-0.71-4.11-1.6-7.97-1.98-8.58-0.38-0.6-1.76-8.62-3.08-17.8-1.32-9.19-2.85-18.73-3.4-21.2-1.86-8.34-4.18-20.45-5.46-28.5-0.7-4.4-2.92-14.3-4.92-21.99-2-7.7-3.64-15.58-3.64-17.5 0-1.93-0.88-6.21-1.95-9.51-1.87-5.79-2.7-10.12-5.51-28.66-0.72-4.75-1.6-9.12-1.95-9.69-2.25-3.64-4.56-88.48-2.56-93.75 0.47-1.22 1.15-5.97 1.52-10.56l0.68-8.34-5.87-1.12c-3.22-0.62-7.66-1.88-9.86-2.81-2.2-0.92-4.23-1.77-4.5-1.88-0.52-0.2-1.37 4.13-3.02 15.31-0.53 3.57-1.4 7.62-1.94 9-1.22 3.07-3.17 23-3.59 36.5-0.6 19.44-1.56 34.03-2.45 37-1.06 3.54-1.23 12.74-1.3 70-0.04 23.65 0.21 44.8 0.53 47 0.33 2.2 1.29 8.05 2.13 13s2.06 12.6 2.71 17 2.25 10.93 3.55 14.52c1.67 4.58 2.39 8.75 2.44 14 0.03 4.11 0.51 9.73 1.06 12.48s1.25 6.69 1.55 8.75c0.51 3.57 0.71 3.75 4.31 3.75 2.07 0 5.68 0.67 8.02 1.5 2.33 0.82 5.08 1.5 6.09 1.5 1.81 0 8.44 2.7 18.41 7.51 2.75 1.33 5.28 2.43 5.62 2.45 0.35 0.02 0.89-1.3 1.22-2.95z"/>
  <path id="path28805" d="m199.53 676.42c0-0.55 0.45-1 1-1s1 0.45 1 1-0.45 1-1 1-1-0.45-1-1z"/>
  <path id="path28807" d="m197.53 667.42c0-0.55 0.45-1 1-1s1 0.45 1 1-0.45 1-1 1-1-0.45-1-1z"/>
  <path id="path28809" d="m196.43 658.17c-0.05-0.14-0.3-1.83-0.57-3.75-0.26-1.93-0.9-3.93-1.41-4.45s-0.92-4.01-0.92-7.75c0-3.87-0.43-6.8-1-6.8-0.55 0-1-1.3-1-2.88 0-1.59-1.13-5.87-2.5-9.53-2.66-7.05-2.97-8.59-1.73-8.59 1.6 0 6.24 14.87 7.33 23.5 0.62 4.95 1.36 9.67 1.63 10.5 0.78 2.34 1.39 10 0.8 10-0.3 0-0.57-0.11-0.63-0.25z"/>
  <path id="path28811" d="m307.53 725.42c0-0.55-0.68-1-1.5-1-0.83 0-1.5 0.45-1.5 1s0.67 1 1.5 1c0.82 0 1.5-0.45 1.5-1z" fill="#fff"/>
  <path id="path28813" stroke="#000" fill="#fff" d="m565.4 721.4c3.1-0.6 7.94-1.58 10.77-2.17 2.83-0.6 6.27-0.8 7.64-0.46 1.55 0.39 2.91 0.12 3.62-0.73 0.62-0.75 1.41-6.49 1.75-12.74 0.41-7.55 1.27-13.07 2.54-16.38 1.68-4.35 3.83-14.92 5.4-26.5 0.27-1.93 1.2-7.78 2.08-13 2.64-15.72 1.96-99.43-1.11-137.5-0.27-3.3-0.68-11.85-0.92-19-0.56-16.46-2.4-36.25-3.68-39.5-0.55-1.38-1.41-5.43-1.92-9-0.51-3.58-1.62-10.33-2.47-15-0.84-4.68-1.54-8.65-1.55-8.83-0.03-0.4-5.05 0.53-10.77 2l-4.25 1.09v36.12c0 19.87-0.43 37.62-0.95 39.44-0.53 1.83-1.24 12.4-1.59 23.5-0.36 11.1-1.1 22.88-1.66 26.18-1.13 6.74-3.1 19.33-5.23 33.5-4.85 32.21-5.79 37.37-8.37 46-1.07 3.57-2.49 9.2-3.16 12.5s-2.31 8.92-3.64 12.5c-1.33 3.57-3.31 9.65-4.41 13.5-1.09 3.85-3.18 10.6-4.64 15l-2.65 8 5.72 12c3.15 6.6 6.31 13.12 7.02 14.5 0.72 1.37 1.82 4.13 2.46 6.12l1.17 3.63 3.59-1.83c1.97-1.01 6.12-2.33 9.21-2.94z"/>
  <path id="path28815" d="m544.53 691.42c0-0.55 0.45-1 1-1s1 0.45 1 1-0.45 1-1 1-1-0.45-1-1z" fill="#fff"/>
  <path id="path28817" d="m547.57 678.38c0.07-2.29 2.45-10.79 3.24-11.58 0.39-0.39 0.72-2.86 0.72-5.49s0.39-5.02 0.87-5.31c0.47-0.3 1.15-2.34 1.51-4.55 0.85-5.33 4.52-15.03 5.69-15.03 1.48 0 1.07 3.64-0.57 5-0.83 0.68-1.5 2.5-1.5 4.04 0 1.53-0.44 2.94-0.97 3.12-0.53 0.19-1.13 1.91-1.33 3.84-0.2 1.92-0.6 4.17-0.9 5-0.3 0.82-1.32 5.55-2.26 10.5s-2.35 9.66-3.13 10.46c-1.24 1.29-1.41 1.29-1.37 0z"/>
  <path id="path28819" d="m313.53 715.42c0-0.55-0.68-1-1.5-1-0.83 0-1.5 0.45-1.5 1s0.67 1 1.5 1c0.82 0 1.5-0.45 1.5-1z" fill="#fff"/>
  <path id="path28821" d="m321.29 715.46c3.71-2.05 16.59-4.04 26.1-4.04 10.61 0 13.14-0.47 13.14-2.46 0-1.48-22.96-0.98-29.5 0.65-2.2 0.55-5.53 1.23-7.39 1.53-3.63 0.57-7.34 3.11-6.5 4.46 0.67 1.08 2.02 1.03 4.15-0.14z" fill="#fff"/>
  <path id="path28823" d="m380.3 711.23c-0.62-1.85-2.77-2.16-2.77-0.4 0 0.88 0.71 1.59 1.58 1.59s1.4-0.54 1.19-1.19z" fill="#fff"/>
  <path id="path28825" d="m367.53 709.92c0-0.83-0.45-1.5-1-1.5s-1 0.67-1 1.5c0 0.82 0.45 1.5 1 1.5s1-0.68 1-1.5z" fill="#fff"/>
  <path id="path28827" d="m221.56 693.28c5.12-8.37 14.56-17.46 22.97-22.1 3.84-2.12 10.82-4.66 17.06-6.2 5.82-1.44 15.94-4.69 22.5-7.21 12.5-4.8 11.11-4.56 42.44-7.23 13.98-1.19 67.52-1.25 89.5-0.1 16.32 0.86 24.03 1.88 64.5 8.56 7.05 1.16 28.15 8.68 30.93 11.01 1.57 1.33 3.13 2.41 3.47 2.41 1.48 0 12.74 8.4 15.54 11.58l3.07 3.51 1.01-2.8c0.56-1.53 1.63-4.37 2.39-6.29 0.76-1.93 2.07-6.43 2.9-10 1.67-7.14 3.31-12.17 5.2-16 0.68-1.38 2.01-6.1 2.96-10.5 2.42-11.19 4.29-18.31 5.19-19.76 0.43-0.68 1.11-3.49 1.52-6.24 1.01-6.75 3.53-23.01 5.29-34 4.49-28.17 5.76-38 6.08-47 0.19-5.5 0.87-16.3 1.5-24s1.29-30.49 1.46-50.63l0.32-36.64-3.67-0.6c-2.01-0.34-6.71-0.61-10.43-0.62-3.74-0.01-10.23-0.96-14.5-2.12-4.25-1.16-10.4-2.75-13.66-3.53-6.42-1.54-26.76-11.3-30.19-14.5-1.17-1.08-2.92-3.45-3.9-5.26l-1.77-3.29-10.61 0.09c-5.83 0.06-12.63-0.43-15.1-1.07-2.48-0.64-7.2-1.74-10.5-2.43-11.97-2.52-26.6-9.34-29.79-13.9-1.19-1.69-1.66-1.72-6.74-0.4-3.01 0.79-8.28 1.88-11.72 2.43-8.09 1.3-40.19 1.42-44.46 0.16-1.81-0.53-5.45-1.65-8.09-2.47-4.41-1.39-5.18-1.36-9.5 0.31-9.29 3.6-15.25 4.26-32.35 3.6-8.99-0.35-17.25-0.88-18.35-1.17-1.48-0.39-2.53 0.31-4 2.67-1.1 1.76-2.96 4.74-4.12 6.62-3.09 4.98-11.08 12.78-15.26 14.91-1.99 1.01-4.97 2.8-6.62 3.98-1.65 1.17-6.99 3.34-11.86 4.81-7.11 2.15-10.56 2.63-17.5 2.46-7.83-0.2-9.29 0.07-15.55 2.94-3.79 1.74-8.97 3.79-11.5 4.56s-6.39 2.17-8.59 3.12c-2.2 0.94-7.15 1.99-10.99 2.34l-6.99 0.63-1.29 10c-0.91 7.07-1.19 20.39-0.93 45.5 0.38 37.05 1.04 51.15 2.58 55.19 0.5 1.33 1.25 5.52 1.65 9.32 0.41 3.8 1.36 8.38 2.11 10.17 0.74 1.79 1.36 5.41 1.36 8.04s0.9 7.15 2 10.04 2.01 6.94 2.02 9 0.5 5.54 1.09 7.74c0.58 2.2 1.66 6.47 2.39 9.5 0.74 3.02 2.01 7.97 2.84 11 0.83 3.02 1.82 8.42 2.22 12 0.39 3.57 1.18 7.62 1.74 9 0.57 1.37 1.37 5.2 1.8 8.5 0.42 3.3 1.26 8.25 1.86 11 0.61 2.75 2.02 10.62 3.14 17.5 1.97 12.13 2.48 14.94 4.97 27.41l1.18 5.9 1.87-2.4c1.02-1.33 3.69-5.4 5.91-9.05z" fill="#fff"/>
  <path id="path28829" d="m344.03 503.95c-0.55-0.23-2.99-0.94-5.41-1.56-6.37-1.64-15.45-10.51-17.7-17.29-4.75-14.3 1.59-30.57 14.34-36.76 5.96-2.9 19.56-3.28 25.41-0.71 5.73 2.51 11.95 8.77 14.55 14.64 3.56 8.03 3.9 12.84 1.47 20.81-1.71 5.63-3.02 7.76-7.37 12.04-2.91 2.87-6.98 5.91-9.05 6.77-3.72 1.54-14.31 2.89-16.24 2.06z"/>
  <path id="path28831" d="m334.34 480.15c0.4-2.06-2.49-3.46-4.01-1.93-1.53 1.52-0.13 4.41 1.93 4.01 0.96-0.18 1.89-1.12 2.08-2.08z" fill="#fff"/>
  <path id="path28833" d="m334.03 470.92c0-2.98-3.91-2.68-4.33 0.33-0.28 1.94 0.06 2.27 2 2 1.55-0.22 2.33-1 2.33-2.33z" fill="#fff"/>
  <path id="path28835" d="m343.33 462.22c3.2-3.2-0.18-7.86-4.33-5.97-3.86 1.75-2.7 7.17 1.53 7.17 0.88 0 2.14-0.54 2.8-1.2z" fill="#fff"/>
  <path id="path28837" d="m409.03 493.08c-6.49-2.15-9.93-4.29-13.81-8.57-5.58-6.19-7.03-10.32-7.04-20.09-0.02-10.15 1.68-14.11 9.02-21.11 5.99-5.71 11.46-7.89 19.83-7.89 8.36 0 13.83 2.18 19.83 7.89 7.3 6.97 9.02 10.97 9.06 21.11 0.03 7.27-0.34 9.22-2.59 13.5-1.44 2.75-4.13 6.44-5.96 8.2-6.92 6.62-19.81 9.79-28.34 6.96z"/>
  <path id="path28839" d="m401.03 462.92c0-2.98-3.91-2.68-4.33 0.33-0.28 1.94 0.06 2.27 2 2 1.55-0.22 2.33-1 2.33-2.33z" fill="#fff"/>
  <path id="path28841" d="m404.35 453.59c0.23-1.62-0.2-2.17-1.7-2.17-2.63 0-3.61 1.7-2.06 3.58 1.62 1.95 3.36 1.3 3.76-1.41z" fill="#fff"/>
  <path id="path28843" d="m414.91 448.17c1.29-2.04-0.14-5.06-2.62-5.55-1.55-0.31-4.76 2.25-4.76 3.8 0 1.54 3.21 4.1 4.76 3.8 0.84-0.17 2.02-1.09 2.62-2.05z" fill="#fff"/>
  <path id="path28845" d="m539.03 428.76c-2.75-0.81-6.8-1.87-9-2.35-5.49-1.19-10.5-3.85-10.5-5.57 0-1.9 0.71-1.8 3.66 0.53 1.36 1.07 4.58 2.25 7.16 2.62 2.57 0.38 5.15 1.05 5.73 1.51s4.06 1.4 7.75 2.1c3.68 0.7 6.7 1.62 6.7 2.05 0 1.2-6 0.74-11.5-0.89z"/>
  <path id="path28847" d="m554.03 428.42c0.34-0.55 0.81-1 1.06-1 0.24 0 0.44 0.45 0.44 1s-0.48 1-1.06 1c-0.59 0-0.78-0.45-0.44-1z"/>
  <path id="path28849" d="m258.53 412.42c0-0.55 0.45-1 1-1s1 0.45 1 1-0.45 1-1 1-1-0.45-1-1z"/>
  <path id="path28851" d="m269.53 407.42c0-0.55 0.45-1 1-1s1 0.45 1 1-0.45 1-1 1-1-0.45-1-1z"/>
  <path id="path28853" d="m275.59 405.17c0.03-0.69 1.98-2.83 4.33-4.75 2.35-1.93 5.79-5.53 7.66-8 1.86-2.48 4.42-5.58 5.67-6.89 2.07-2.17 2.28-2.21 2.28-0.48 0 1.05-2.03 4.22-4.5 7.05-2.48 2.83-4.5 5.63-4.5 6.23s-0.44 1.09-0.98 1.09-2.41 1.57-4.16 3.5c-3.2 3.52-5.92 4.57-5.8 2.25z"/>
  <path id="path28855" d="m456.53 396.42c0-0.55 0.45-1 1-1s1 0.45 1 1-0.45 1-1 1-1-0.45-1-1z"/>
  <path id="path28857" d="m442.53 394.48c-3.91-1.19-13.24-5.86-15.99-7.99-4.25-3.31-1.37-3.47 3.91-0.21 2.76 1.7 6.16 3.37 7.56 3.72 1.39 0.35 2.78 1.04 3.08 1.53 0.31 0.49 1.37 0.89 2.37 0.89s2.38 0.67 3.07 1.5c1.42 1.72 0.3 1.88-4 0.56z"/>
  <path id="path28859" d="m196.3 422.33c3.15-1.15 7.16-2.45 8.91-2.88 1.76-0.44 5.13-1.7 7.5-2.82 11.62-5.45 13.09-5.82 21.62-5.5 6.67 0.26 9.94-0.18 16.65-2.23 4.6-1.4 9.47-3.42 10.83-4.49 1.37-1.08 3.55-2.36 4.85-2.86 3.84-1.48 12.8-9.11 14.46-12.31 0.84-1.63 3.58-5.66 6.09-8.95 3.43-4.52 4.95-5.81 6.18-5.25 0.9 0.4 8.88 1.15 17.73 1.66 17.3 0.99 27.06-0.2 34.57-4.23 2.84-1.52 3.77-1.6 6.33-0.53 8.2 3.41 12.31 3.91 32.51 3.94 20.18 0.04 26.68-0.66 36.68-3.94 4.04-1.33 4.23-1.3 5.8 1.1 6.76 10.32 41.83 19.99 61.12 16.86 4.02-0.65 4.15-0.58 6.64 3.68 2.9 4.95 4.8 6.81 9.76 9.61 11.01 6.21 17.84 9.05 27.16 11.27 4.58 1.1 10.36 2.62 12.84 3.39 2.47 0.77 9.9 1.65 16.5 1.96 14.62 0.68 25.63-1.56 31.7-6.44 3.55-2.85 3.92-2.93 8.5-1.88 11.66 2.66 25.47-2.32 35.42-12.76 3.33-3.49 5.92-7.21 6.33-9.11 0.39-1.76 1.14-3.2 1.67-3.2s3.75-1.29 7.17-2.87c3.41-1.58 7.84-3.4 9.83-4.04 3.86-1.24 15.88-12.83 15.88-15.31 0-0.76 1.41-3.32 3.15-5.67 1.73-2.36 3.92-7.06 4.86-10.45 0.95-3.39 2.54-9.01 3.54-12.5 1.55-5.39 1.65-7.15 0.67-11.82-0.63-3.02-1.84-6.87-2.69-8.57-0.84-1.69-1.53-3.93-1.53-4.98 0-1.93-2.37-7.19-4.35-9.66-0.6-0.75-1.64-2.96-2.31-4.91-1.07-3.11-0.91-4.46 1.28-10.99 2.37-7.08 2.45-7.99 1.54-18.78-0.76-9.01-1.57-12.75-3.94-18.15-1.64-3.74-3.47-8.02-4.06-9.5-1.51-3.78-7.89-10.65-12.83-13.79-3.04-1.94-3.93-3.04-3.31-4.05 1.57-2.53 2.15-13.35 1-18.46-0.61-2.75-2.15-6.58-3.41-8.5-1.26-1.93-2.61-4.81-3.01-6.4-0.39-1.6-3.5-5.64-6.91-9.01-4.75-4.68-7.36-6.42-11.19-7.48-2.75-0.76-6.35-2.17-8-3.14-5.25-3.08-13.79-4.44-19.75-3.15-2.89 0.62-7.32 1.22-9.85 1.33-4.4 0.2-4.86-0.06-10.5-5.8-6.17-6.29-12.4-9.35-19.02-9.35-1.79 0-4.52-0.53-6.07-1.17-1.55-0.65-6.41-1.52-10.81-1.95-14.45-1.39-17.95-2.14-21.13-4.56-1.72-1.3-5.88-3.3-9.24-4.43-3.36-1.14-7.58-3.06-9.38-4.28-4.55-3.08-11.24-5.61-14.82-5.61-1.67 0-4.47-0.77-6.23-1.7-2.7-1.43-6.67-1.72-25.13-1.86-20.46-0.16-21.98-0.3-22.66-2.06-0.4-1.03-3.13-4.23-6.07-7.09-5.61-5.48-11.58-8.29-17.57-8.29-1.9 0-5.86-0.7-8.78-1.55-5.44-1.58-9.32-1.41-34.99 1.55-8.9 1.03-23.56 5.23-28.33 8.12-5.23 3.17-12.13 3.02-19.36-0.42-5.49-2.61-6.29-2.7-22.57-2.7-16.1 0-25.17 1.25-28.74 3.96-0.55 0.42-2.58 1-4.51 1.3-3.36 0.51-15.44 5.58-23.1 9.7-3.27 1.75-3.8 1.79-5.78 0.41-5.35-3.75-18.58-5.57-43.11-5.93-19.59-0.28-22.67 0.12-33 4.28-7.74 3.12-17.38 11.8-19.13 17.24-1.51 4.7-2.43 5.73-5.66 6.31-1.49 0.28-4.06 0.96-5.71 1.53-1.65 0.56-5.6 1.82-8.77 2.78-3.17 0.97-6.25 2.33-6.83 3.04-0.59 0.7-3.05 2.24-5.48 3.42-2.43 1.17-6.33 4.36-8.67 7.09-2.34 2.72-5.948 6.82-8.019 9.09-5.661 6.22-7.532 13.49-7.276 28.28 0.191 11.03 0 12.44-2.36 17.5-2.254 4.83-2.588 6.94-2.739 17.28-0.194 13.26-0.51 14.72-3.189 14.72-1.04 0-3.437 1.01-5.327 2.25-1.889 1.24-4.99 3.1-6.889 4.14-5.68 3.1-11.037 8.77-13.813 14.61-2.358 4.96-2.595 6.52-2.421 15.98 0.203 11.1 1.574 19.03 3.942 22.81 0.791 1.26 2.487 4.26 3.769 6.68 4.608 8.66 19.192 24.89 27.068 30.13 2.75 1.82 5.955 4.12 7.121 5.11 2.188 1.84 5.383 10.02 5.383 13.77 0 3.15 5.09 10.61 10.1 14.8 2.42 2.03 6.62 5.54 9.35 7.82 5.44 4.55 12.32 7.9 16.23 7.9 1.76 0 3.9 1.54 7.15 5.16 2.82 3.13 6.62 6.03 9.69 7.39 2.78 1.23 5.64 2.93 6.34 3.79 1.48 1.78 10.26 4.91 13.79 4.91 1.31 0 4.07 0.6 6.12 1.33 5.36 1.91 10.47 1.71 17-0.67z" fill="#fff"/>
  <path id="path28861" d="m171.68 405.42c-4.11-0.97-10.64-7.17-12.86-12.21-1.88-4.25-5.7-6.47-12.79-7.45-2.56-0.35-6.22-1.69-8.12-2.99-1.91-1.29-3.63-2.35-3.83-2.35-0.86 0-7.55-6.46-7.55-7.28 0-0.5-0.87-2.14-1.94-3.63-1.06-1.49-2.25-4.04-2.63-5.65-0.39-1.62-1.06-3.39-1.48-3.94-0.43-0.55-1.09-2.69-1.48-4.75-1.02-5.5 1.02-4.68 2.51 1 1.62 6.23 3.62 10.67 5.5 12.23 0.83 0.7 1.52 1.77 1.52 2.39 0 1.09 7.43 8.63 8.5 8.63 0.3 0 2.32 1.12 4.5 2.5 2.17 1.37 5.39 2.5 7.15 2.5 5.15 0 10.45 3.05 12.22 7.02 2.41 5.4 8.11 11.04 12.35 12.24 4.74 1.33 12.28 1.3 18.78-0.06 4.6-0.96 13.7-5.12 15.95-7.29 1.39-1.34 2.55-1.11 2.55 0.5 0 1.91-11.33 7.32-17.95 8.58-6.12 1.16-16.02 1.17-20.9 0.01z"/>
  <path id="path28863" d="m451.03 369.47c-1.65-0.41-4.7-1.71-6.78-2.9-2.08-1.18-4.35-2.15-5.04-2.15-1.87 0-12.37-11.13-13.2-14-0.4-1.38-1.21-3.1-1.8-3.84-1.15-1.44-4.56-10.21-5.4-13.91-1.13-4.94 1.38-1.85 3.65 4.5 1.32 3.71 2.95 7.2 3.62 7.75 0.66 0.55 1.49 2.23 1.84 3.74 0.88 3.76 10.8 13.3 16.47 15.84 2.55 1.15 6.95 2.58 9.77 3.18 5.03 1.08 5.33 1.01 13.93-3.33 6.32-3.19 9.51-5.47 11.36-8.14 4.08-5.89 5.89-4.28 2.13 1.89-1.39 2.28-4.55 4.48-11.13 7.75-9.3 4.62-12.78 5.27-19.42 3.62z"/>
  <path id="path28865" d="m646.53 285.4c0.01-0.82 0.9-2.83 2-4.48 2.48-3.76 2.78-15.88 0.46-18.94-0.8-1.07-1.47-2.87-1.47-4 0-4.17-9.25-15.52-14.29-17.55-2.1-0.84-2.08-0.89 0.49-0.95 1.48-0.03 2.98 0.42 3.34 1 0.37 0.58 1.75 1.48 3.08 1.98 1.33 0.51 2.88 1.94 3.43 3.19s2.12 3.8 3.48 5.67c1.36 1.86 2.48 4.35 2.48 5.52s0.72 3.16 1.59 4.41c1.25 1.79 1.53 4.23 1.25 11.2-0.31 8.17-0.58 9.16-3.09 11.67-1.85 1.85-2.75 2.27-2.75 1.28z"/>
  <path id="path28867" d="m108.73 240.22c-0.66-0.66-1.2-2.07-1.2-3.14 0-1.06-0.54-3.71-1.19-5.88-0.91-3.05-0.91-4.4 0-5.86 0.65-1.04 1.19-2.67 1.19-3.63 0-0.95 2.36-4.12 5.25-7.05l5.25-5.32v-20.83l4.96-5.05c2.73-2.77 5.32-5.04 5.75-5.04 0.44 0 3.13-1.13 5.98-2.5 2.85-1.38 5.91-2.5 6.79-2.5 0.89 0 2.13-0.52 2.76-1.15 1.59-1.59 16.26-2.48 16.26-0.98 0 0.67-1.84 1.13-4.56 1.13-9.76 0-23.52 5.66-31.44 12.94l-4.5 4.14 0.25 10.43 0.25 10.44-5.46 5.55c-3.06 3.11-5.87 7.03-6.39 8.91-1.53 5.55 0.52 13.01 4.35 15.82 0.55 0.41 0.07 0.74-1.05 0.75-1.13 0.01-2.59-0.52-3.25-1.18z"/>
  <path id="path28869" d="m417.53 148.61c0-0.44 1.35-2.93 3-5.53 5.9-9.3 3.7-11.65-14.5-15.5-9.13-1.93-12.94-2.16-20.5-1.23-11.7 1.44-14.88 2.38-24.97 7.39-9.14 4.53-12.05 5.49-12.01 3.93 0.02-0.78 13.82-7.7 19.98-10.02 3.41-1.29 18.48-3.4 24.5-3.44 1.65-0.01 5.7 0.44 9 1 22.4 3.78 22.5 3.83 22.5 11.7 0 4.11-0.57 5.94-2.75 8.81-2.65 3.49-4.25 4.58-4.25 2.89z"/>
  <path id="path28871" d="m344.03 503.95c-0.55-0.23-2.99-0.94-5.41-1.56-6.37-1.64-15.45-10.51-17.7-17.29-4.75-14.3 1.59-30.57 14.34-36.76 5.96-2.9 19.56-3.28 25.41-0.71 5.73 2.51 11.95 8.77 14.55 14.64 3.56 8.03 3.9 12.84 1.47 20.81-1.71 5.63-3.02 7.76-7.37 12.04-2.91 2.87-6.98 5.91-9.05 6.77-3.72 1.54-14.31 2.89-16.24 2.06z"/>
  <path id="path28873" d="m334.34 480.15c0.4-2.06-2.49-3.46-4.01-1.93-1.53 1.52-0.13 4.41 1.93 4.01 0.96-0.18 1.89-1.12 2.08-2.08z" fill="#fff"/>
  <path id="path28875" d="m334.03 470.92c0-2.98-3.91-2.68-4.33 0.33-0.28 1.94 0.06 2.27 2 2 1.55-0.22 2.33-1 2.33-2.33z" fill="#fff"/>
  <path id="path28877" d="m343.33 462.22c3.2-3.2-0.18-7.86-4.33-5.97-3.86 1.75-2.7 7.17 1.53 7.17 0.88 0 2.14-0.54 2.8-1.2z" fill="#fff"/>
  <path id="path28879" d="m409.03 493.08c-6.49-2.15-9.93-4.29-13.81-8.57-5.58-6.19-7.03-10.32-7.04-20.09-0.02-10.15 1.68-14.11 9.02-21.11 5.99-5.71 11.46-7.89 19.83-7.89 8.36 0 13.83 2.18 19.83 7.89 7.3 6.97 9.02 10.97 9.06 21.11 0.03 7.27-0.34 9.22-2.59 13.5-1.44 2.75-4.13 6.44-5.96 8.2-6.92 6.62-19.81 9.79-28.34 6.96z"/>
  <path id="path28881" d="m401.03 462.92c0-2.98-3.91-2.68-4.33 0.33-0.28 1.94 0.06 2.27 2 2 1.55-0.22 2.33-1 2.33-2.33z" fill="#fff"/>
  <path id="path28883" d="m404.35 453.59c0.23-1.62-0.2-2.17-1.7-2.17-2.63 0-3.61 1.7-2.06 3.58 1.62 1.95 3.36 1.3 3.76-1.41z" fill="#fff"/>
  <path id="path28885" d="m414.91 448.17c1.29-2.04-0.14-5.06-2.62-5.55-1.55-0.31-4.76 2.25-4.76 3.8 0 1.54 3.21 4.1 4.76 3.8 0.84-0.17 2.02-1.09 2.62-2.05z" fill="#fff"/>
  <path id="path28887" d="m539.03 428.76c-2.75-0.81-6.8-1.87-9-2.35-5.49-1.19-10.5-3.85-10.5-5.57 0-1.9 0.71-1.8 3.66 0.53 1.36 1.07 4.58 2.25 7.16 2.62 2.57 0.38 5.15 1.05 5.73 1.51s4.06 1.4 7.75 2.1c3.68 0.7 6.7 1.62 6.7 2.05 0 1.2-6 0.74-11.5-0.89z"/>
  <path id="path28889" d="m554.03 428.42c0.34-0.55 0.81-1 1.06-1 0.24 0 0.44 0.45 0.44 1s-0.48 1-1.06 1c-0.59 0-0.78-0.45-0.44-1z"/>
  <path id="path28891" d="m258.53 412.42c0-0.55 0.45-1 1-1s1 0.45 1 1-0.45 1-1 1-1-0.45-1-1z"/>
  <path id="path28893" d="m269.53 407.42c0-0.55 0.45-1 1-1s1 0.45 1 1-0.45 1-1 1-1-0.45-1-1z"/>
  <path id="path28895" d="m275.59 405.17c0.03-0.69 1.98-2.83 4.33-4.75 2.35-1.93 5.79-5.53 7.66-8 1.86-2.48 4.42-5.58 5.67-6.89 2.07-2.17 2.28-2.21 2.28-0.48 0 1.05-2.03 4.22-4.5 7.05-2.48 2.83-4.5 5.63-4.5 6.23s-0.44 1.09-0.98 1.09-2.41 1.57-4.16 3.5c-3.2 3.52-5.92 4.57-5.8 2.25z"/>
  <path id="path28897" d="m456.53 396.42c0-0.55 0.45-1 1-1s1 0.45 1 1-0.45 1-1 1-1-0.45-1-1z"/>
  <path id="path28899" d="m442.53 394.48c-3.91-1.19-13.24-5.86-15.99-7.99-4.25-3.31-1.37-3.47 3.91-0.21 2.76 1.7 6.16 3.37 7.56 3.72 1.39 0.35 2.78 1.04 3.08 1.53 0.31 0.49 1.37 0.89 2.37 0.89s2.38 0.67 3.07 1.5c1.42 1.72 0.3 1.88-4 0.56z"/>
  <path id="path28901" d="m196.3 422.33c3.15-1.15 7.16-2.45 8.91-2.88 1.76-0.44 5.13-1.7 7.5-2.82 11.62-5.45 13.09-5.82 21.62-5.5 6.67 0.26 9.94-0.18 16.65-2.23 4.6-1.4 9.47-3.42 10.83-4.49 1.37-1.08 3.55-2.36 4.85-2.86 3.84-1.48 12.8-9.11 14.46-12.31 0.84-1.63 3.58-5.66 6.09-8.95 3.43-4.52 4.95-5.81 6.18-5.25 0.9 0.4 8.88 1.15 17.73 1.66 17.3 0.99 27.06-0.2 34.57-4.23 2.84-1.52 3.77-1.6 6.33-0.53 8.2 3.41 12.31 3.91 32.51 3.94 20.18 0.04 26.68-0.66 36.68-3.94 4.04-1.33 4.23-1.3 5.8 1.1 6.76 10.32 41.83 19.99 61.12 16.86 4.02-0.65 4.15-0.58 6.64 3.68 2.9 4.95 4.8 6.81 9.76 9.61 11.01 6.21 17.84 9.05 27.16 11.27 4.58 1.1 10.36 2.62 12.84 3.39 2.47 0.77 9.9 1.65 16.5 1.96 14.62 0.68 25.63-1.56 31.7-6.44 3.55-2.85 3.92-2.93 8.5-1.88 11.66 2.66 25.47-2.32 35.42-12.76 3.33-3.49 5.92-7.21 6.33-9.11 0.39-1.76 1.14-3.2 1.67-3.2s3.75-1.29 7.17-2.87c3.41-1.58 7.84-3.4 9.83-4.04 3.86-1.24 15.88-12.83 15.88-15.31 0-0.76 1.41-3.32 3.15-5.67 1.73-2.36 3.92-7.06 4.86-10.45 0.95-3.39 2.54-9.01 3.54-12.5 1.55-5.39 1.65-7.15 0.67-11.82-0.63-3.02-1.84-6.87-2.69-8.57-0.84-1.69-1.53-3.93-1.53-4.98 0-1.93-2.37-7.19-4.35-9.66-0.6-0.75-1.64-2.96-2.31-4.91-1.07-3.11-0.91-4.46 1.28-10.99 2.37-7.08 2.45-7.99 1.54-18.78-0.76-9.01-1.57-12.75-3.94-18.15-1.64-3.74-3.47-8.02-4.06-9.5-1.51-3.78-7.89-10.65-12.83-13.79-3.04-1.94-3.93-3.04-3.31-4.05 1.57-2.53 2.15-13.35 1-18.46-0.61-2.75-2.15-6.58-3.41-8.5-1.26-1.93-2.61-4.81-3.01-6.4-0.39-1.6-3.5-5.64-6.91-9.01-4.75-4.68-7.36-6.42-11.19-7.48-2.75-0.76-6.35-2.17-8-3.14-5.25-3.08-13.79-4.44-19.75-3.15-2.89 0.62-7.32 1.22-9.85 1.33-4.4 0.2-4.86-0.06-10.5-5.8-6.17-6.29-12.4-9.35-19.02-9.35-1.79 0-4.52-0.53-6.07-1.17-1.55-0.65-6.41-1.52-10.81-1.95-14.45-1.39-17.95-2.14-21.13-4.56-1.72-1.3-5.88-3.3-9.24-4.43-3.36-1.14-7.58-3.06-9.38-4.28-4.55-3.08-11.24-5.61-14.82-5.61-1.67 0-4.47-0.77-6.23-1.7-2.7-1.43-6.67-1.72-25.13-1.86-20.46-0.16-21.98-0.3-22.66-2.06-0.4-1.03-3.13-4.23-6.07-7.09-5.61-5.48-11.58-8.29-17.57-8.29-1.9 0-5.86-0.7-8.78-1.55-5.44-1.58-9.32-1.41-34.99 1.55-8.9 1.03-23.56 5.23-28.33 8.12-5.23 3.17-12.13 3.02-19.36-0.42-5.49-2.61-6.29-2.7-22.57-2.7-16.1 0-25.17 1.25-28.74 3.96-0.55 0.42-2.58 1-4.51 1.3-3.36 0.51-15.44 5.58-23.1 9.7-3.27 1.75-3.8 1.79-5.78 0.41-5.35-3.75-18.58-5.57-43.11-5.93-19.59-0.28-22.67 0.12-33 4.28-7.74 3.12-17.38 11.8-19.13 17.24-1.51 4.7-2.43 5.73-5.66 6.31-1.49 0.28-4.06 0.96-5.71 1.53-1.65 0.56-5.6 1.82-8.77 2.78-3.17 0.97-6.25 2.33-6.83 3.04-0.59 0.7-3.05 2.24-5.48 3.42-2.43 1.17-6.33 4.36-8.67 7.09-2.34 2.72-5.948 6.82-8.019 9.09-5.661 6.22-7.532 13.49-7.276 28.28 0.191 11.03 0 12.44-2.36 17.5-2.254 4.83-2.588 6.94-2.739 17.28-0.194 13.26-0.51 14.72-3.189 14.72-1.04 0-3.437 1.01-5.327 2.25-1.889 1.24-4.99 3.1-6.889 4.14-5.68 3.1-11.037 8.77-13.813 14.61-2.358 4.96-2.595 6.52-2.421 15.98 0.203 11.1 1.574 19.03 3.942 22.81 0.791 1.26 2.487 4.26 3.769 6.68 4.608 8.66 19.192 24.89 27.068 30.13 2.75 1.82 5.955 4.12 7.121 5.11 2.188 1.84 5.383 10.02 5.383 13.77 0 3.15 5.09 10.61 10.1 14.8 2.42 2.03 6.62 5.54 9.35 7.82 5.44 4.55 12.32 7.9 16.23 7.9 1.76 0 3.9 1.54 7.15 5.16 2.82 3.13 6.62 6.03 9.69 7.39 2.78 1.23 5.64 2.93 6.34 3.79 1.48 1.78 10.26 4.91 13.79 4.91 1.31 0 4.07 0.6 6.12 1.33 5.36 1.91 10.47 1.71 17-0.67z" fill="#fff"/>
  <path id="path28903" d="m171.68 405.42c-4.11-0.97-10.64-7.17-12.86-12.21-1.88-4.25-5.7-6.47-12.79-7.45-2.56-0.35-6.22-1.69-8.12-2.99-1.91-1.29-3.63-2.35-3.83-2.35-0.86 0-7.55-6.46-7.55-7.28 0-0.5-0.87-2.14-1.94-3.63-1.06-1.49-2.25-4.04-2.63-5.65-0.39-1.62-1.06-3.39-1.48-3.94-0.43-0.55-1.09-2.69-1.48-4.75-1.02-5.5 1.02-4.68 2.51 1 1.62 6.23 3.62 10.67 5.5 12.23 0.83 0.7 1.52 1.77 1.52 2.39 0 1.09 7.43 8.63 8.5 8.63 0.3 0 2.32 1.12 4.5 2.5 2.17 1.37 5.39 2.5 7.15 2.5 5.15 0 10.45 3.05 12.22 7.02 2.41 5.4 8.11 11.04 12.35 12.24 4.74 1.33 12.28 1.3 18.78-0.06 4.6-0.96 13.7-5.12 15.95-7.29 1.39-1.34 2.55-1.11 2.55 0.5 0 1.91-11.33 7.32-17.95 8.58-6.12 1.16-16.02 1.17-20.9 0.01z"/>
  <path id="path28905" d="m451.03 369.47c-1.65-0.41-4.7-1.71-6.78-2.9-2.08-1.18-4.35-2.15-5.04-2.15-1.87 0-12.37-11.13-13.2-14-0.4-1.38-1.21-3.1-1.8-3.84-1.15-1.44-4.56-10.21-5.4-13.91-1.13-4.94 1.38-1.85 3.65 4.5 1.32 3.71 2.95 7.2 3.62 7.75 0.66 0.55 1.49 2.23 1.84 3.74 0.88 3.76 10.8 13.3 16.47 15.84 2.55 1.15 6.95 2.58 9.77 3.18 5.03 1.08 5.33 1.01 13.93-3.33 6.32-3.19 9.51-5.47 11.36-8.14 4.08-5.89 5.89-4.28 2.13 1.89-1.39 2.28-4.55 4.48-11.13 7.75-9.3 4.62-12.78 5.27-19.42 3.62z"/>
  <path id="path28907" d="m646.53 285.4c0.01-0.82 0.9-2.83 2-4.48 2.48-3.76 2.78-15.88 0.46-18.94-0.8-1.07-1.47-2.87-1.47-4 0-4.17-9.25-15.52-14.29-17.55-2.1-0.84-2.08-0.89 0.49-0.95 1.48-0.03 2.98 0.42 3.34 1 0.37 0.58 1.75 1.48 3.08 1.98 1.33 0.51 2.88 1.94 3.43 3.19s2.12 3.8 3.48 5.67c1.36 1.86 2.48 4.35 2.48 5.52s0.72 3.16 1.59 4.41c1.25 1.79 1.53 4.23 1.25 11.2-0.31 8.17-0.58 9.16-3.09 11.67-1.85 1.85-2.75 2.27-2.75 1.28z"/>
  <path id="path28909" d="m108.73 240.22c-0.66-0.66-1.2-2.07-1.2-3.14 0-1.06-0.54-3.71-1.19-5.88-0.91-3.05-0.91-4.4 0-5.86 0.65-1.04 1.19-2.67 1.19-3.63 0-0.95 2.36-4.12 5.25-7.05l5.25-5.32v-20.83l4.96-5.05c2.73-2.77 5.32-5.04 5.75-5.04 0.44 0 3.13-1.13 5.98-2.5 2.85-1.38 5.91-2.5 6.79-2.5 0.89 0 2.13-0.52 2.76-1.15 1.59-1.59 16.26-2.48 16.26-0.98 0 0.67-1.84 1.13-4.56 1.13-9.76 0-23.52 5.66-31.44 12.94l-4.5 4.14 0.25 10.43 0.25 10.44-5.46 5.55c-3.06 3.11-5.87 7.03-6.39 8.91-1.53 5.55 0.52 13.01 4.35 15.82 0.55 0.41 0.07 0.74-1.05 0.75-1.13 0.01-2.59-0.52-3.25-1.18z"/>
  <path id="path28911" d="m417.53 148.61c0-0.44 1.35-2.93 3-5.53 5.9-9.3 3.7-11.65-14.5-15.5-9.13-1.93-12.94-2.16-20.5-1.23-11.7 1.44-14.88 2.38-24.97 7.39-9.14 4.53-12.05 5.49-12.01 3.93 0.02-0.78 13.82-7.7 19.98-10.02 3.41-1.29 18.48-3.4 24.5-3.44 1.65-0.01 5.7 0.44 9 1 22.4 3.78 22.5 3.83 22.5 11.7 0 4.11-0.57 5.94-2.75 8.81-2.65 3.49-4.25 4.58-4.25 2.89z"/>
  <path id="path28913" d="m344.03 503.95c-0.55-0.23-2.99-0.94-5.41-1.56-6.37-1.64-15.45-10.51-17.7-17.29-4.75-14.3 1.59-30.57 14.34-36.76 5.96-2.9 19.56-3.28 25.41-0.71 5.73 2.51 11.95 8.77 14.55 14.64 3.56 8.03 3.9 12.84 1.47 20.81-1.71 5.63-3.02 7.76-7.37 12.04-2.91 2.87-6.98 5.91-9.05 6.77-3.72 1.54-14.31 2.89-16.24 2.06z"/>
  <path id="path28915" d="m334.34 480.15c0.4-2.06-2.49-3.46-4.01-1.93-1.53 1.52-0.13 4.41 1.93 4.01 0.96-0.18 1.89-1.12 2.08-2.08z" fill="#fff"/>
  <path id="path28917" d="m334.03 470.92c0-2.98-3.91-2.68-4.33 0.33-0.28 1.94 0.06 2.27 2 2 1.55-0.22 2.33-1 2.33-2.33z" fill="#fff"/>
  <path id="path28919" d="m343.33 462.22c3.2-3.2-0.18-7.86-4.33-5.97-3.86 1.75-2.7 7.17 1.53 7.17 0.88 0 2.14-0.54 2.8-1.2z" fill="#fff"/>
  <path id="path28921" d="m409.03 493.08c-6.49-2.15-9.93-4.29-13.81-8.57-5.58-6.19-7.03-10.32-7.04-20.09-0.02-10.15 1.68-14.11 9.02-21.11 5.99-5.71 11.46-7.89 19.83-7.89 8.36 0 13.83 2.18 19.83 7.89 7.3 6.97 9.02 10.97 9.06 21.11 0.03 7.27-0.34 9.22-2.59 13.5-1.44 2.75-4.13 6.44-5.96 8.2-6.92 6.62-19.81 9.79-28.34 6.96z"/>
  <path id="path28923" d="m401.03 462.92c0-2.98-3.91-2.68-4.33 0.33-0.28 1.94 0.06 2.27 2 2 1.55-0.22 2.33-1 2.33-2.33z" fill="#fff"/>
  <path id="path28925" d="m404.35 453.59c0.23-1.62-0.2-2.17-1.7-2.17-2.63 0-3.61 1.7-2.06 3.58 1.62 1.95 3.36 1.3 3.76-1.41z" fill="#fff"/>
  <path id="path28927" d="m414.91 448.17c1.29-2.04-0.14-5.06-2.62-5.55-1.55-0.31-4.76 2.25-4.76 3.8 0 1.54 3.21 4.1 4.76 3.8 0.84-0.17 2.02-1.09 2.62-2.05z" fill="#fff"/>
  <path id="path28929" d="m539.03 428.76c-2.75-0.81-6.8-1.87-9-2.35-5.49-1.19-10.5-3.85-10.5-5.57 0-1.9 0.71-1.8 3.66 0.53 1.36 1.07 4.58 2.25 7.16 2.62 2.57 0.38 5.15 1.05 5.73 1.51s4.06 1.4 7.75 2.1c3.68 0.7 6.7 1.62 6.7 2.05 0 1.2-6 0.74-11.5-0.89z"/>
  <path id="path28931" d="m554.03 428.42c0.34-0.55 0.81-1 1.06-1 0.24 0 0.44 0.45 0.44 1s-0.48 1-1.06 1c-0.59 0-0.78-0.45-0.44-1z"/>
  <path id="path28933" d="m258.53 412.42c0-0.55 0.45-1 1-1s1 0.45 1 1-0.45 1-1 1-1-0.45-1-1z"/>
  <path id="path28935" d="m269.53 407.42c0-0.55 0.45-1 1-1s1 0.45 1 1-0.45 1-1 1-1-0.45-1-1z"/>
  <path id="path28937" d="m275.59 405.17c0.03-0.69 1.98-2.83 4.33-4.75 2.35-1.93 5.79-5.53 7.66-8 1.86-2.48 4.42-5.58 5.67-6.89 2.07-2.17 2.28-2.21 2.28-0.48 0 1.05-2.03 4.22-4.5 7.05-2.48 2.83-4.5 5.63-4.5 6.23s-0.44 1.09-0.98 1.09-2.41 1.57-4.16 3.5c-3.2 3.52-5.92 4.57-5.8 2.25z"/>
  <path id="path28939" d="m456.53 396.42c0-0.55 0.45-1 1-1s1 0.45 1 1-0.45 1-1 1-1-0.45-1-1z"/>
  <path id="path28941" d="m442.53 394.48c-3.91-1.19-13.24-5.86-15.99-7.99-4.25-3.31-1.37-3.47 3.91-0.21 2.76 1.7 6.16 3.37 7.56 3.72 1.39 0.35 2.78 1.04 3.08 1.53 0.31 0.49 1.37 0.89 2.37 0.89s2.38 0.67 3.07 1.5c1.42 1.72 0.3 1.88-4 0.56z"/>
  <path id="path28943" d="m196.3 422.33c3.15-1.15 7.16-2.45 8.91-2.88 1.76-0.44 5.13-1.7 7.5-2.82 11.62-5.45 13.09-5.82 21.62-5.5 6.67 0.26 9.94-0.18 16.65-2.23 4.6-1.4 9.47-3.42 10.83-4.49 1.37-1.08 3.55-2.36 4.85-2.86 3.84-1.48 12.8-9.11 14.46-12.31 0.84-1.63 3.58-5.66 6.09-8.95 3.43-4.52 4.95-5.81 6.18-5.25 0.9 0.4 8.88 1.15 17.73 1.66 17.3 0.99 27.06-0.2 34.57-4.23 2.84-1.52 3.77-1.6 6.33-0.53 8.2 3.41 12.31 3.91 32.51 3.94 20.18 0.04 26.68-0.66 36.68-3.94 4.04-1.33 4.23-1.3 5.8 1.1 6.76 10.32 41.83 19.99 61.12 16.86 4.02-0.65 4.15-0.58 6.64 3.68 2.9 4.95 4.8 6.81 9.76 9.61 11.01 6.21 17.84 9.05 27.16 11.27 4.58 1.1 10.36 2.62 12.84 3.39 2.47 0.77 9.9 1.65 16.5 1.96 14.62 0.68 25.63-1.56 31.7-6.44 3.55-2.85 3.92-2.93 8.5-1.88 11.66 2.66 25.47-2.32 35.42-12.76 3.33-3.49 5.92-7.21 6.33-9.11 0.39-1.76 1.14-3.2 1.67-3.2s3.75-1.29 7.17-2.87c3.41-1.58 7.84-3.4 9.83-4.04 3.86-1.24 15.88-12.83 15.88-15.31 0-0.76 1.41-3.32 3.15-5.67 1.73-2.36 3.92-7.06 4.86-10.45 0.95-3.39 2.54-9.01 3.54-12.5 1.55-5.39 1.65-7.15 0.67-11.82-0.63-3.02-1.84-6.87-2.69-8.57-0.84-1.69-1.53-3.93-1.53-4.98 0-1.93-2.37-7.19-4.35-9.66-0.6-0.75-1.64-2.96-2.31-4.91-1.07-3.11-0.91-4.46 1.28-10.99 2.37-7.08 2.45-7.99 1.54-18.78-0.76-9.01-1.57-12.75-3.94-18.15-1.64-3.74-3.47-8.02-4.06-9.5-1.51-3.78-7.89-10.65-12.83-13.79-3.04-1.94-3.93-3.04-3.31-4.05 1.57-2.53 2.15-13.35 1-18.46-0.61-2.75-2.15-6.58-3.41-8.5-1.26-1.93-2.61-4.81-3.01-6.4-0.39-1.6-3.5-5.64-6.91-9.01-4.75-4.68-7.36-6.42-11.19-7.48-2.75-0.76-6.35-2.17-8-3.14-5.25-3.08-13.79-4.44-19.75-3.15-2.89 0.62-7.32 1.22-9.85 1.33-4.4 0.2-4.86-0.06-10.5-5.8-6.17-6.29-12.4-9.35-19.02-9.35-1.79 0-4.52-0.53-6.07-1.17-1.55-0.65-6.41-1.52-10.81-1.95-14.45-1.39-17.95-2.14-21.13-4.56-1.72-1.3-5.88-3.3-9.24-4.43-3.36-1.14-7.58-3.06-9.38-4.28-4.55-3.08-11.24-5.61-14.82-5.61-1.67 0-4.47-0.77-6.23-1.7-2.7-1.43-6.67-1.72-25.13-1.86-20.46-0.16-21.98-0.3-22.66-2.06-0.4-1.03-3.13-4.23-6.07-7.09-5.61-5.48-11.58-8.29-17.57-8.29-1.9 0-5.86-0.7-8.78-1.55-5.44-1.58-9.32-1.41-34.99 1.55-8.9 1.03-23.56 5.23-28.33 8.12-5.23 3.17-12.13 3.02-19.36-0.42-5.49-2.61-6.29-2.7-22.57-2.7-16.1 0-25.17 1.25-28.74 3.96-0.55 0.42-2.58 1-4.51 1.3-3.36 0.51-15.44 5.58-23.1 9.7-3.27 1.75-3.8 1.79-5.78 0.41-5.35-3.75-18.58-5.57-43.11-5.93-19.59-0.28-22.67 0.12-33 4.28-7.74 3.12-17.38 11.8-19.13 17.24-1.51 4.7-2.43 5.73-5.66 6.31-1.49 0.28-4.06 0.96-5.71 1.53-1.65 0.56-5.6 1.82-8.77 2.78-3.17 0.97-6.25 2.33-6.83 3.04-0.59 0.7-3.05 2.24-5.48 3.42-2.43 1.17-6.33 4.36-8.67 7.09-2.34 2.72-5.948 6.82-8.019 9.09-5.661 6.22-7.532 13.49-7.276 28.28 0.191 11.03 0 12.44-2.36 17.5-2.254 4.83-2.588 6.94-2.739 17.28-0.194 13.26-0.51 14.72-3.189 14.72-1.04 0-3.437 1.01-5.327 2.25-1.889 1.24-4.99 3.1-6.889 4.14-5.68 3.1-11.037 8.77-13.813 14.61-2.358 4.96-2.595 6.52-2.421 15.98 0.203 11.1 1.574 19.03 3.942 22.81 0.791 1.26 2.487 4.26 3.769 6.68 4.608 8.66 19.192 24.89 27.068 30.13 2.75 1.82 5.955 4.12 7.121 5.11 2.188 1.84 5.383 10.02 5.383 13.77 0 3.15 5.09 10.61 10.1 14.8 2.42 2.03 6.62 5.54 9.35 7.82 5.44 4.55 12.32 7.9 16.23 7.9 1.76 0 3.9 1.54 7.15 5.16 2.82 3.13 6.62 6.03 9.69 7.39 2.78 1.23 5.64 2.93 6.34 3.79 1.48 1.78 10.26 4.91 13.79 4.91 1.31 0 4.07 0.6 6.12 1.33 5.36 1.91 10.47 1.71 17-0.67z" fill="#fff"/>
  <path id="path28945" d="m171.68 405.42c-4.11-0.97-10.64-7.17-12.86-12.21-1.88-4.25-5.7-6.47-12.79-7.45-2.56-0.35-6.22-1.69-8.12-2.99-1.91-1.29-3.63-2.35-3.83-2.35-0.86 0-7.55-6.46-7.55-7.28 0-0.5-0.87-2.14-1.94-3.63-1.06-1.49-2.25-4.04-2.63-5.65-0.39-1.62-1.06-3.39-1.48-3.94-0.43-0.55-1.09-2.69-1.48-4.75-1.02-5.5 1.02-4.68 2.51 1 1.62 6.23 3.62 10.67 5.5 12.23 0.83 0.7 1.52 1.77 1.52 2.39 0 1.09 7.43 8.63 8.5 8.63 0.3 0 2.32 1.12 4.5 2.5 2.17 1.37 5.39 2.5 7.15 2.5 5.15 0 10.45 3.05 12.22 7.02 2.41 5.4 8.11 11.04 12.35 12.24 4.74 1.33 12.28 1.3 18.78-0.06 4.6-0.96 13.7-5.12 15.95-7.29 1.39-1.34 2.55-1.11 2.55 0.5 0 1.91-11.33 7.32-17.95 8.58-6.12 1.16-16.02 1.17-20.9 0.01z"/>
  <path id="path28947" d="m451.03 369.47c-1.65-0.41-4.7-1.71-6.78-2.9-2.08-1.18-4.35-2.15-5.04-2.15-1.87 0-12.37-11.13-13.2-14-0.4-1.38-1.21-3.1-1.8-3.84-1.15-1.44-4.56-10.21-5.4-13.91-1.13-4.94 1.38-1.85 3.65 4.5 1.32 3.71 2.95 7.2 3.62 7.75 0.66 0.55 1.49 2.23 1.84 3.74 0.88 3.76 10.8 13.3 16.47 15.84 2.55 1.15 6.95 2.58 9.77 3.18 5.03 1.08 5.33 1.01 13.93-3.33 6.32-3.19 9.51-5.47 11.36-8.14 4.08-5.89 5.89-4.28 2.13 1.89-1.39 2.28-4.55 4.48-11.13 7.75-9.3 4.62-12.78 5.27-19.42 3.62z"/>
  <path id="path28949" d="m646.53 285.4c0.01-0.82 0.9-2.83 2-4.48 2.48-3.76 2.78-15.88 0.46-18.94-0.8-1.07-1.47-2.87-1.47-4 0-4.17-9.25-15.52-14.29-17.55-2.1-0.84-2.08-0.89 0.49-0.95 1.48-0.03 2.98 0.42 3.34 1 0.37 0.58 1.75 1.48 3.08 1.98 1.33 0.51 2.88 1.94 3.43 3.19s2.12 3.8 3.48 5.67c1.36 1.86 2.48 4.35 2.48 5.52s0.72 3.16 1.59 4.41c1.25 1.79 1.53 4.23 1.25 11.2-0.31 8.17-0.58 9.16-3.09 11.67-1.85 1.85-2.75 2.27-2.75 1.28z"/>
  <path id="path28951" d="m108.73 240.22c-0.66-0.66-1.2-2.07-1.2-3.14 0-1.06-0.54-3.71-1.19-5.88-0.91-3.05-0.91-4.4 0-5.86 0.65-1.04 1.19-2.67 1.19-3.63 0-0.95 2.36-4.12 5.25-7.05l5.25-5.32v-20.83l4.96-5.05c2.73-2.77 5.32-5.04 5.75-5.04 0.44 0 3.13-1.13 5.98-2.5 2.85-1.38 5.91-2.5 6.79-2.5 0.89 0 2.13-0.52 2.76-1.15 1.59-1.59 16.26-2.48 16.26-0.98 0 0.67-1.84 1.13-4.56 1.13-9.76 0-23.52 5.66-31.44 12.94l-4.5 4.14 0.25 10.43 0.25 10.44-5.46 5.55c-3.06 3.11-5.87 7.03-6.39 8.91-1.53 5.55 0.52 13.01 4.35 15.82 0.55 0.41 0.07 0.74-1.05 0.75-1.13 0.01-2.59-0.52-3.25-1.18z"/>
  <path id="path28953" d="m417.53 148.61c0-0.44 1.35-2.93 3-5.53 5.9-9.3 3.7-11.65-14.5-15.5-9.13-1.93-12.94-2.16-20.5-1.23-11.7 1.44-14.88 2.38-24.97 7.39-9.14 4.53-12.05 5.49-12.01 3.93 0.02-0.78 13.82-7.7 19.98-10.02 3.41-1.29 18.48-3.4 24.5-3.44 1.65-0.01 5.7 0.44 9 1 22.4 3.78 22.5 3.83 22.5 11.7 0 4.11-0.57 5.94-2.75 8.81-2.65 3.49-4.25 4.58-4.25 2.89z"/>
  <path id="path28955" d="m344.03 503.95c-0.55-0.23-2.99-0.94-5.41-1.56-6.37-1.64-15.45-10.51-17.7-17.29-4.75-14.3 1.59-30.57 14.34-36.76 5.96-2.9 19.56-3.28 25.41-0.71 5.73 2.51 11.95 8.77 14.55 14.64 3.56 8.03 3.9 12.84 1.47 20.81-1.71 5.63-3.02 7.76-7.37 12.04-2.91 2.87-6.98 5.91-9.05 6.77-3.72 1.54-14.31 2.89-16.24 2.06z"/>
  <path id="path28957" d="m334.34 480.15c0.4-2.06-2.49-3.46-4.01-1.93-1.53 1.52-0.13 4.41 1.93 4.01 0.96-0.18 1.89-1.12 2.08-2.08z" fill="#fff"/>
  <path id="path28959" d="m334.03 470.92c0-2.98-3.91-2.68-4.33 0.33-0.28 1.94 0.06 2.27 2 2 1.55-0.22 2.33-1 2.33-2.33z" fill="#fff"/>
  <path id="path28961" d="m343.33 462.22c3.2-3.2-0.18-7.86-4.33-5.97-3.86 1.75-2.7 7.17 1.53 7.17 0.88 0 2.14-0.54 2.8-1.2z" fill="#fff"/>
  <path id="path28963" d="m409.03 493.08c-6.49-2.15-9.93-4.29-13.81-8.57-5.58-6.19-7.03-10.32-7.04-20.09-0.02-10.15 1.68-14.11 9.02-21.11 5.99-5.71 11.46-7.89 19.83-7.89 8.36 0 13.83 2.18 19.83 7.89 7.3 6.97 9.02 10.97 9.06 21.11 0.03 7.27-0.34 9.22-2.59 13.5-1.44 2.75-4.13 6.44-5.96 8.2-6.92 6.62-19.81 9.79-28.34 6.96z"/>
  <path id="path28965" d="m401.03 462.92c0-2.98-3.91-2.68-4.33 0.33-0.28 1.94 0.06 2.27 2 2 1.55-0.22 2.33-1 2.33-2.33z" fill="#fff"/>
  <path id="path28967" d="m404.35 453.59c0.23-1.62-0.2-2.17-1.7-2.17-2.63 0-3.61 1.7-2.06 3.58 1.62 1.95 3.36 1.3 3.76-1.41z" fill="#fff"/>
  <path id="path28969" d="m414.91 448.17c1.29-2.04-0.14-5.06-2.62-5.55-1.55-0.31-4.76 2.25-4.76 3.8 0 1.54 3.21 4.1 4.76 3.8 0.84-0.17 2.02-1.09 2.62-2.05z" fill="#fff"/>
  <path id="path28971" d="m539.03 428.76c-2.75-0.81-6.8-1.87-9-2.35-5.49-1.19-10.5-3.85-10.5-5.57 0-1.9 0.71-1.8 3.66 0.53 1.36 1.07 4.58 2.25 7.16 2.62 2.57 0.38 5.15 1.05 5.73 1.51s4.06 1.4 7.75 2.1c3.68 0.7 6.7 1.62 6.7 2.05 0 1.2-6 0.74-11.5-0.89z"/>
  <path id="path28973" d="m554.03 428.42c0.34-0.55 0.81-1 1.06-1 0.24 0 0.44 0.45 0.44 1s-0.48 1-1.06 1c-0.59 0-0.78-0.45-0.44-1z"/>
  <path id="path28975" d="m258.53 412.42c0-0.55 0.45-1 1-1s1 0.45 1 1-0.45 1-1 1-1-0.45-1-1z"/>
  <path id="path28977" d="m269.53 407.42c0-0.55 0.45-1 1-1s1 0.45 1 1-0.45 1-1 1-1-0.45-1-1z"/>
  <path id="path28979" d="m275.59 405.17c0.03-0.69 1.98-2.83 4.33-4.75 2.35-1.93 5.79-5.53 7.66-8 1.86-2.48 4.42-5.58 5.67-6.89 2.07-2.17 2.28-2.21 2.28-0.48 0 1.05-2.03 4.22-4.5 7.05-2.48 2.83-4.5 5.63-4.5 6.23s-0.44 1.09-0.98 1.09-2.41 1.57-4.16 3.5c-3.2 3.52-5.92 4.57-5.8 2.25z"/>
  <path id="path28981" d="m456.53 396.42c0-0.55 0.45-1 1-1s1 0.45 1 1-0.45 1-1 1-1-0.45-1-1z"/>
  <path id="path28983" d="m442.53 394.48c-3.91-1.19-13.24-5.86-15.99-7.99-4.25-3.31-1.37-3.47 3.91-0.21 2.76 1.7 6.16 3.37 7.56 3.72 1.39 0.35 2.78 1.04 3.08 1.53 0.31 0.49 1.37 0.89 2.37 0.89s2.38 0.67 3.07 1.5c1.42 1.72 0.3 1.88-4 0.56z"/>
  <path id="path28985" stroke="#000" fill="#fff" d="m196.3 422.33c3.15-1.15 7.16-2.45 8.91-2.88 1.76-0.44 5.13-1.7 7.5-2.82 11.62-5.45 13.09-5.82 21.62-5.5 6.67 0.26 9.94-0.18 16.65-2.23 4.6-1.4 9.47-3.42 10.83-4.49 1.37-1.08 3.55-2.36 4.85-2.86 3.84-1.48 12.8-9.11 14.46-12.31 0.84-1.63 3.58-5.66 6.09-8.95 3.43-4.52 4.95-5.81 6.18-5.25 0.9 0.4 8.88 1.15 17.73 1.66 17.3 0.99 27.06-0.2 34.57-4.23 2.84-1.52 3.77-1.6 6.33-0.53 8.2 3.41 12.31 3.91 32.51 3.94 20.18 0.04 26.68-0.66 36.68-3.94 4.04-1.33 4.23-1.3 5.8 1.1 6.76 10.32 41.83 19.99 61.12 16.86 4.02-0.65 4.15-0.58 6.64 3.68 2.9 4.95 4.8 6.81 9.76 9.61 11.01 6.21 17.84 9.05 27.16 11.27 4.58 1.1 10.36 2.62 12.84 3.39 2.47 0.77 9.9 1.65 16.5 1.96 14.62 0.68 25.63-1.56 31.7-6.44 3.55-2.85 3.92-2.93 8.5-1.88 11.66 2.66 25.47-2.32 35.42-12.76 3.33-3.49 5.92-7.21 6.33-9.11 0.39-1.76 1.14-3.2 1.67-3.2s3.75-1.29 7.17-2.87c3.41-1.58 7.84-3.4 9.83-4.04 3.86-1.24 15.88-12.83 15.88-15.31 0-0.76 1.41-3.32 3.15-5.67 1.73-2.36 3.92-7.06 4.86-10.45 0.95-3.39 2.54-9.01 3.54-12.5 1.55-5.39 1.65-7.15 0.67-11.82-0.63-3.02-1.84-6.87-2.69-8.57-0.84-1.69-1.53-3.93-1.53-4.98 0-1.93-2.37-7.19-4.35-9.66-0.6-0.75-1.64-2.96-2.31-4.91-1.07-3.11-0.91-4.46 1.28-10.99 2.37-7.08 2.45-7.99 1.54-18.78-0.76-9.01-1.57-12.75-3.94-18.15-1.64-3.74-3.47-8.02-4.06-9.5-1.51-3.78-7.89-10.65-12.83-13.79-3.04-1.94-3.93-3.04-3.31-4.05 1.57-2.53 2.15-13.35 1-18.46-0.61-2.75-2.15-6.58-3.41-8.5-1.26-1.93-2.61-4.81-3.01-6.4-0.39-1.6-3.5-5.64-6.91-9.01-4.75-4.68-7.36-6.42-11.19-7.48-2.75-0.76-6.35-2.17-8-3.14-5.25-3.08-13.79-4.44-19.75-3.15-2.89 0.62-7.32 1.22-9.85 1.33-4.4 0.2-4.86-0.06-10.5-5.8-6.17-6.29-12.4-9.35-19.02-9.35-1.79 0-4.52-0.53-6.07-1.17-1.55-0.65-6.41-1.52-10.81-1.95-14.45-1.39-17.95-2.14-21.13-4.56-1.72-1.3-5.88-3.3-9.24-4.43-3.36-1.14-7.58-3.06-9.38-4.28-4.55-3.08-11.24-5.61-14.82-5.61-1.67 0-4.47-0.77-6.23-1.7-2.7-1.43-6.67-1.72-25.13-1.86-20.46-0.16-21.98-0.3-22.66-2.06-0.4-1.03-3.13-4.23-6.07-7.09-5.61-5.48-11.58-8.29-17.57-8.29-1.9 0-5.86-0.7-8.78-1.55-5.44-1.58-9.32-1.41-34.99 1.55-8.9 1.03-23.56 5.23-28.33 8.12-5.23 3.17-12.13 3.02-19.36-0.42-5.49-2.61-6.29-2.7-22.57-2.7-16.1 0-25.17 1.25-28.74 3.96-0.55 0.42-2.58 1-4.51 1.3-3.36 0.51-15.44 5.58-23.1 9.7-3.27 1.75-3.8 1.79-5.78 0.41-5.35-3.75-18.58-5.57-43.11-5.93-19.59-0.28-22.67 0.12-33 4.28-7.74 3.12-17.38 11.8-19.13 17.24-1.51 4.7-2.43 5.73-5.66 6.31-1.49 0.28-4.06 0.96-5.71 1.53-1.65 0.56-5.6 1.82-8.77 2.78-3.17 0.97-6.25 2.33-6.83 3.04-0.59 0.7-3.05 2.24-5.48 3.42-2.43 1.17-6.33 4.36-8.67 7.09-2.34 2.72-5.948 6.82-8.019 9.09-5.661 6.22-7.532 13.49-7.276 28.28 0.191 11.03 0 12.44-2.36 17.5-2.254 4.83-2.588 6.94-2.739 17.28-0.194 13.26-0.51 14.72-3.189 14.72-1.04 0-3.437 1.01-5.327 2.25-1.889 1.24-4.99 3.1-6.889 4.14-5.68 3.1-11.037 8.77-13.813 14.61-2.358 4.96-2.595 6.52-2.421 15.98 0.203 11.1 1.574 19.03 3.942 22.81 0.791 1.26 2.487 4.26 3.769 6.68 4.608 8.66 19.192 24.89 27.068 30.13 2.75 1.82 5.955 4.12 7.121 5.11 2.188 1.84 5.383 10.02 5.383 13.77 0 3.15 5.09 10.61 10.1 14.8 2.42 2.03 6.62 5.54 9.35 7.82 5.44 4.55 12.32 7.9 16.23 7.9 1.76 0 3.9 1.54 7.15 5.16 2.82 3.13 6.62 6.03 9.69 7.39 2.78 1.23 5.64 2.93 6.34 3.79 1.48 1.78 10.26 4.91 13.79 4.91 1.31 0 4.07 0.6 6.12 1.33 5.36 1.91 10.47 1.71 17-0.67z"/>
  <path id="path28987" d="m171.68 405.42c-4.11-0.97-10.64-7.17-12.86-12.21-1.88-4.25-5.7-6.47-12.79-7.45-2.56-0.35-6.22-1.69-8.12-2.99-1.91-1.29-3.63-2.35-3.83-2.35-0.86 0-7.55-6.46-7.55-7.28 0-0.5-0.87-2.14-1.94-3.63-1.06-1.49-2.25-4.04-2.63-5.65-0.39-1.62-1.06-3.39-1.48-3.94-0.43-0.55-1.09-2.69-1.48-4.75-1.02-5.5 1.02-4.68 2.51 1 1.62 6.23 3.62 10.67 5.5 12.23 0.83 0.7 1.52 1.77 1.52 2.39 0 1.09 7.43 8.63 8.5 8.63 0.3 0 2.32 1.12 4.5 2.5 2.17 1.37 5.39 2.5 7.15 2.5 5.15 0 10.45 3.05 12.22 7.02 2.41 5.4 8.11 11.04 12.35 12.24 4.74 1.33 12.28 1.3 18.78-0.06 4.6-0.96 13.7-5.12 15.95-7.29 1.39-1.34 2.55-1.11 2.55 0.5 0 1.91-11.33 7.32-17.95 8.58-6.12 1.16-16.02 1.17-20.9 0.01z"/>
  <path id="path28989" d="m451.03 369.47c-1.65-0.41-4.7-1.71-6.78-2.9-2.08-1.18-4.35-2.15-5.04-2.15-1.87 0-12.37-11.13-13.2-14-0.4-1.38-1.21-3.1-1.8-3.84-1.15-1.44-4.56-10.21-5.4-13.91-1.13-4.94 1.38-1.85 3.65 4.5 1.32 3.71 2.95 7.2 3.62 7.75 0.66 0.55 1.49 2.23 1.84 3.74 0.88 3.76 10.8 13.3 16.47 15.84 2.55 1.15 6.95 2.58 9.77 3.18 5.03 1.08 5.33 1.01 13.93-3.33 6.32-3.19 9.51-5.47 11.36-8.14 4.08-5.89 5.89-4.28 2.13 1.89-1.39 2.28-4.55 4.48-11.13 7.75-9.3 4.62-12.78 5.27-19.42 3.62z"/>
  <path id="path28991" d="m646.53 285.4c0.01-0.82 0.9-2.83 2-4.48 2.48-3.76 2.78-15.88 0.46-18.94-0.8-1.07-1.47-2.87-1.47-4 0-4.17-9.25-15.52-14.29-17.55-2.1-0.84-2.08-0.89 0.49-0.95 1.48-0.03 2.98 0.42 3.34 1 0.37 0.58 1.75 1.48 3.08 1.98 1.33 0.51 2.88 1.94 3.43 3.19s2.12 3.8 3.48 5.67c1.36 1.86 2.48 4.35 2.48 5.52s0.72 3.16 1.59 4.41c1.25 1.79 1.53 4.23 1.25 11.2-0.31 8.17-0.58 9.16-3.09 11.67-1.85 1.85-2.75 2.27-2.75 1.28z"/>
  <path id="path28993" d="m108.73 240.22c-0.66-0.66-1.2-2.07-1.2-3.14 0-1.06-0.54-3.71-1.19-5.88-0.91-3.05-0.91-4.4 0-5.86 0.65-1.04 1.19-2.67 1.19-3.63 0-0.95 2.36-4.12 5.25-7.05l5.25-5.32v-20.83l4.96-5.05c2.73-2.77 5.32-5.04 5.75-5.04 0.44 0 3.13-1.13 5.98-2.5 2.85-1.38 5.91-2.5 6.79-2.5 0.89 0 2.13-0.52 2.76-1.15 1.59-1.59 16.26-2.48 16.26-0.98 0 0.67-1.84 1.13-4.56 1.13-9.76 0-23.52 5.66-31.44 12.94l-4.5 4.14 0.25 10.43 0.25 10.44-5.46 5.55c-3.06 3.11-5.87 7.03-6.39 8.91-1.53 5.55 0.52 13.01 4.35 15.82 0.55 0.41 0.07 0.74-1.05 0.75-1.13 0.01-2.59-0.52-3.25-1.18z"/>
  <path id="path28995" d="m417.53 148.61c0-0.44 1.35-2.93 3-5.53 5.9-9.3 3.7-11.65-14.5-15.5-9.13-1.93-12.94-2.16-20.5-1.23-11.7 1.44-14.88 2.38-24.97 7.39-9.14 4.53-12.05 5.49-12.01 3.93 0.02-0.78 13.82-7.7 19.98-10.02 3.41-1.29 18.48-3.4 24.5-3.44 1.65-0.01 5.7 0.44 9 1 22.4 3.78 22.5 3.83 22.5 11.7 0 4.11-0.57 5.94-2.75 8.81-2.65 3.49-4.25 4.58-4.25 2.89z"/>
  <path id="path28997" d="m344.03 503.95c-0.55-0.23-2.99-0.94-5.41-1.56-6.37-1.64-15.45-10.51-17.7-17.29-4.75-14.3 1.59-30.57 14.34-36.76 5.96-2.9 19.56-3.28 25.41-0.71 5.73 2.51 11.95 8.77 14.55 14.64 3.56 8.03 3.9 12.84 1.47 20.81-1.71 5.63-3.02 7.76-7.37 12.04-2.91 2.87-6.98 5.91-9.05 6.77-3.72 1.54-14.31 2.89-16.24 2.06z"/>
  <path id="path28999" d="m334.34 480.15c0.4-2.06-2.49-3.46-4.01-1.93-1.53 1.52-0.13 4.41 1.93 4.01 0.96-0.18 1.89-1.12 2.08-2.08z" fill="#fff"/>
  <path id="path29001" d="m334.03 470.92c0-2.98-3.91-2.68-4.33 0.33-0.28 1.94 0.06 2.27 2 2 1.55-0.22 2.33-1 2.33-2.33z" fill="#fff"/>
  <path id="path29003" d="m343.33 462.22c3.2-3.2-0.18-7.86-4.33-5.97-3.86 1.75-2.7 7.17 1.53 7.17 0.88 0 2.14-0.54 2.8-1.2z" fill="#fff"/>
  <path id="path29005" d="m409.03 493.08c-6.49-2.15-9.93-4.29-13.81-8.57-5.58-6.19-7.03-10.32-7.04-20.09-0.02-10.15 1.68-14.11 9.02-21.11 5.99-5.71 11.46-7.89 19.83-7.89 8.36 0 13.83 2.18 19.83 7.89 7.3 6.97 9.02 10.97 9.06 21.11 0.03 7.27-0.34 9.22-2.59 13.5-1.44 2.75-4.13 6.44-5.96 8.2-6.92 6.62-19.81 9.79-28.34 6.96z"/>
  <path id="path29007" d="m401.03 462.92c0-2.98-3.91-2.68-4.33 0.33-0.28 1.94 0.06 2.27 2 2 1.55-0.22 2.33-1 2.33-2.33z" fill="#fff"/>
  <path id="path29009" d="m404.35 453.59c0.23-1.62-0.2-2.17-1.7-2.17-2.63 0-3.61 1.7-2.06 3.58 1.62 1.95 3.36 1.3 3.76-1.41z" fill="#fff"/>
  <path id="path29011" d="m414.91 448.17c1.29-2.04-0.14-5.06-2.62-5.55-1.55-0.31-4.76 2.25-4.76 3.8 0 1.54 3.21 4.1 4.76 3.8 0.84-0.17 2.02-1.09 2.62-2.05z" fill="#fff"/>
  <path id="path29013" d="m539.03 428.76c-2.75-0.81-6.8-1.87-9-2.35-5.49-1.19-10.5-3.85-10.5-5.57 0-1.9 0.71-1.8 3.66 0.53 1.36 1.07 4.58 2.25 7.16 2.62 2.57 0.38 5.15 1.05 5.73 1.51s4.06 1.4 7.75 2.1c3.68 0.7 6.7 1.62 6.7 2.05 0 1.2-6 0.74-11.5-0.89z"/>
  <path id="path29015" d="m554.03 428.42c0.34-0.55 0.81-1 1.06-1 0.24 0 0.44 0.45 0.44 1s-0.48 1-1.06 1c-0.59 0-0.78-0.45-0.44-1z"/>
  <path id="path29017" d="m258.53 412.42c0-0.55 0.45-1 1-1s1 0.45 1 1-0.45 1-1 1-1-0.45-1-1z"/>
  <path id="path29019" d="m269.53 407.42c0-0.55 0.45-1 1-1s1 0.45 1 1-0.45 1-1 1-1-0.45-1-1z"/>
  <path id="path29021" d="m275.59 405.17c0.03-0.69 1.98-2.83 4.33-4.75 2.35-1.93 5.79-5.53 7.66-8 1.86-2.48 4.42-5.58 5.67-6.89 2.07-2.17 2.28-2.21 2.28-0.48 0 1.05-2.03 4.22-4.5 7.05-2.48 2.83-4.5 5.63-4.5 6.23s-0.44 1.09-0.98 1.09-2.41 1.57-4.16 3.5c-3.2 3.52-5.92 4.57-5.8 2.25z"/>
  <path id="path29023" d="m456.53 396.42c0-0.55 0.45-1 1-1s1 0.45 1 1-0.45 1-1 1-1-0.45-1-1z"/>
  <path id="path29025" d="m442.53 394.48c-3.91-1.19-13.24-5.86-15.99-7.99-4.25-3.31-1.37-3.47 3.91-0.21 2.76 1.7 6.16 3.37 7.56 3.72 1.39 0.35 2.78 1.04 3.08 1.53 0.31 0.49 1.37 0.89 2.37 0.89s2.38 0.67 3.07 1.5c1.42 1.72 0.3 1.88-4 0.56z"/>
  <path id="path29027" d="m196.3 422.33c3.15-1.15 7.16-2.45 8.91-2.88 1.76-0.44 5.13-1.7 7.5-2.82 11.62-5.45 13.09-5.82 21.62-5.5 6.67 0.26 9.94-0.18 16.65-2.23 4.6-1.4 9.47-3.42 10.83-4.49 1.37-1.08 3.55-2.36 4.85-2.86 3.84-1.48 12.8-9.11 14.46-12.31 0.84-1.63 3.58-5.66 6.09-8.95 3.43-4.52 4.95-5.81 6.18-5.25 0.9 0.4 8.88 1.15 17.73 1.66 17.3 0.99 27.06-0.2 34.57-4.23 2.84-1.52 3.77-1.6 6.33-0.53 8.2 3.41 12.31 3.91 32.51 3.94 20.18 0.04 26.68-0.66 36.68-3.94 4.04-1.33 4.23-1.3 5.8 1.1 6.76 10.32 41.83 19.99 61.12 16.86 4.02-0.65 4.15-0.58 6.64 3.68 2.9 4.95 4.8 6.81 9.76 9.61 11.01 6.21 17.84 9.05 27.16 11.27 4.58 1.1 10.36 2.62 12.84 3.39 2.47 0.77 9.9 1.65 16.5 1.96 14.62 0.68 25.63-1.56 31.7-6.44 3.55-2.85 3.92-2.93 8.5-1.88 11.66 2.66 25.47-2.32 35.42-12.76 3.33-3.49 5.92-7.21 6.33-9.11 0.39-1.76 1.14-3.2 1.67-3.2s3.75-1.29 7.17-2.87c3.41-1.58 7.84-3.4 9.83-4.04 3.86-1.24 15.88-12.83 15.88-15.31 0-0.76 1.41-3.32 3.15-5.67 1.73-2.36 3.92-7.06 4.86-10.45 0.95-3.39 2.54-9.01 3.54-12.5 1.55-5.39 1.65-7.15 0.67-11.82-0.63-3.02-1.84-6.87-2.69-8.57-0.84-1.69-1.53-3.93-1.53-4.98 0-1.93-2.37-7.19-4.35-9.66-0.6-0.75-1.64-2.96-2.31-4.91-1.07-3.11-0.91-4.46 1.28-10.99 2.37-7.08 2.45-7.99 1.54-18.78-0.76-9.01-1.57-12.75-3.94-18.15-1.64-3.74-3.47-8.02-4.06-9.5-1.51-3.78-7.89-10.65-12.83-13.79-3.04-1.94-3.93-3.04-3.31-4.05 1.57-2.53 2.15-13.35 1-18.46-0.61-2.75-2.15-6.58-3.41-8.5-1.26-1.93-2.61-4.81-3.01-6.4-0.39-1.6-3.5-5.64-6.91-9.01-4.75-4.68-7.36-6.42-11.19-7.48-2.75-0.76-6.35-2.17-8-3.14-5.25-3.08-13.79-4.44-19.75-3.15-2.89 0.62-7.32 1.22-9.85 1.33-4.4 0.2-4.86-0.06-10.5-5.8-6.17-6.29-12.4-9.35-19.02-9.35-1.79 0-4.52-0.53-6.07-1.17-1.55-0.65-6.41-1.52-10.81-1.95-14.45-1.39-17.95-2.14-21.13-4.56-1.72-1.3-5.88-3.3-9.24-4.43-3.36-1.14-7.58-3.06-9.38-4.28-4.55-3.08-11.24-5.61-14.82-5.61-1.67 0-4.47-0.77-6.23-1.7-2.7-1.43-6.67-1.72-25.13-1.86-20.46-0.16-21.98-0.3-22.66-2.06-0.4-1.03-3.13-4.23-6.07-7.09-5.61-5.48-11.58-8.29-17.57-8.29-1.9 0-5.86-0.7-8.78-1.55-5.44-1.58-9.32-1.41-34.99 1.55-8.9 1.03-23.56 5.23-28.33 8.12-5.23 3.17-12.13 3.02-19.36-0.42-5.49-2.61-6.29-2.7-22.57-2.7-16.1 0-25.17 1.25-28.74 3.96-0.55 0.42-2.58 1-4.51 1.3-3.36 0.51-15.44 5.58-23.1 9.7-3.27 1.75-3.8 1.79-5.78 0.41-5.35-3.75-18.58-5.57-43.11-5.93-19.59-0.28-22.67 0.12-33 4.28-7.74 3.12-17.38 11.8-19.13 17.24-1.51 4.7-2.43 5.73-5.66 6.31-1.49 0.28-4.06 0.96-5.71 1.53-1.65 0.56-5.6 1.82-8.77 2.78-3.17 0.97-6.25 2.33-6.83 3.04-0.59 0.7-3.05 2.24-5.48 3.42-2.43 1.17-6.33 4.36-8.67 7.09-2.34 2.72-5.948 6.82-8.019 9.09-5.661 6.22-7.532 13.49-7.276 28.28 0.191 11.03 0 12.44-2.36 17.5-2.254 4.83-2.588 6.94-2.739 17.28-0.194 13.26-0.51 14.72-3.189 14.72-1.04 0-3.437 1.01-5.327 2.25-1.889 1.24-4.99 3.1-6.889 4.14-5.68 3.1-11.037 8.77-13.813 14.61-2.358 4.96-2.595 6.52-2.421 15.98 0.203 11.1 1.574 19.03 3.942 22.81 0.791 1.26 2.487 4.26 3.769 6.68 4.608 8.66 19.192 24.89 27.068 30.13 2.75 1.82 5.955 4.12 7.121 5.11 2.188 1.84 5.383 10.02 5.383 13.77 0 3.15 5.09 10.61 10.1 14.8 2.42 2.03 6.62 5.54 9.35 7.82 5.44 4.55 12.32 7.9 16.23 7.9 1.76 0 3.9 1.54 7.15 5.16 2.82 3.13 6.62 6.03 9.69 7.39 2.78 1.23 5.64 2.93 6.34 3.79 1.48 1.78 10.26 4.91 13.79 4.91 1.31 0 4.07 0.6 6.12 1.33 5.36 1.91 10.47 1.71 17-0.67z" fill="#fff"/>
  <path id="path29029" d="m171.68 405.42c-4.11-0.97-10.64-7.17-12.86-12.21-1.88-4.25-5.7-6.47-12.79-7.45-2.56-0.35-6.22-1.69-8.12-2.99-1.91-1.29-3.63-2.35-3.83-2.35-0.86 0-7.55-6.46-7.55-7.28 0-0.5-0.87-2.14-1.94-3.63-1.06-1.49-2.25-4.04-2.63-5.65-0.39-1.62-1.06-3.39-1.48-3.94-0.43-0.55-1.09-2.69-1.48-4.75-1.02-5.5 1.02-4.68 2.51 1 1.62 6.23 3.62 10.67 5.5 12.23 0.83 0.7 1.52 1.77 1.52 2.39 0 1.09 7.43 8.63 8.5 8.63 0.3 0 2.32 1.12 4.5 2.5 2.17 1.37 5.39 2.5 7.15 2.5 5.15 0 10.45 3.05 12.22 7.02 2.41 5.4 8.11 11.04 12.35 12.24 4.74 1.33 12.28 1.3 18.78-0.06 4.6-0.96 13.7-5.12 15.95-7.29 1.39-1.34 2.55-1.11 2.55 0.5 0 1.91-11.33 7.32-17.95 8.58-6.12 1.16-16.02 1.17-20.9 0.01z"/>
  <path id="path29031" d="m451.03 369.47c-1.65-0.41-4.7-1.71-6.78-2.9-2.08-1.18-4.35-2.15-5.04-2.15-1.87 0-12.37-11.13-13.2-14-0.4-1.38-1.21-3.1-1.8-3.84-1.15-1.44-4.56-10.21-5.4-13.91-1.13-4.94 1.38-1.85 3.65 4.5 1.32 3.71 2.95 7.2 3.62 7.75 0.66 0.55 1.49 2.23 1.84 3.74 0.88 3.76 10.8 13.3 16.47 15.84 2.55 1.15 6.95 2.58 9.77 3.18 5.03 1.08 5.33 1.01 13.93-3.33 6.32-3.19 9.51-5.47 11.36-8.14 4.08-5.89 5.89-4.28 2.13 1.89-1.39 2.28-4.55 4.48-11.13 7.75-9.3 4.62-12.78 5.27-19.42 3.62z"/>
  <path id="path29033" d="m646.53 285.4c0.01-0.82 0.9-2.83 2-4.48 2.48-3.76 2.78-15.88 0.46-18.94-0.8-1.07-1.47-2.87-1.47-4 0-4.17-9.25-15.52-14.29-17.55-2.1-0.84-2.08-0.89 0.49-0.95 1.48-0.03 2.98 0.42 3.34 1 0.37 0.58 1.75 1.48 3.08 1.98 1.33 0.51 2.88 1.94 3.43 3.19s2.12 3.8 3.48 5.67c1.36 1.86 2.48 4.35 2.48 5.52s0.72 3.16 1.59 4.41c1.25 1.79 1.53 4.23 1.25 11.2-0.31 8.17-0.58 9.16-3.09 11.67-1.85 1.85-2.75 2.27-2.75 1.28z"/>
  <path id="path29035" d="m108.73 240.22c-0.66-0.66-1.2-2.07-1.2-3.14 0-1.06-0.54-3.71-1.19-5.88-0.91-3.05-0.91-4.4 0-5.86 0.65-1.04 1.19-2.67 1.19-3.63 0-0.95 2.36-4.12 5.25-7.05l5.25-5.32v-20.83l4.96-5.05c2.73-2.77 5.32-5.04 5.75-5.04 0.44 0 3.13-1.13 5.98-2.5 2.85-1.38 5.91-2.5 6.79-2.5 0.89 0 2.13-0.52 2.76-1.15 1.59-1.59 16.26-2.48 16.26-0.98 0 0.67-1.84 1.13-4.56 1.13-9.76 0-23.52 5.66-31.44 12.94l-4.5 4.14 0.25 10.43 0.25 10.44-5.46 5.55c-3.06 3.11-5.87 7.03-6.39 8.91-1.53 5.55 0.52 13.01 4.35 15.82 0.55 0.41 0.07 0.74-1.05 0.75-1.13 0.01-2.59-0.52-3.25-1.18z"/>
  <path id="path29037" d="m417.53 148.61c0-0.44 1.35-2.93 3-5.53 5.9-9.3 3.7-11.65-14.5-15.5-9.13-1.93-12.94-2.16-20.5-1.23-11.7 1.44-14.88 2.38-24.97 7.39-9.14 4.53-12.05 5.49-12.01 3.93 0.02-0.78 13.82-7.7 19.98-10.02 3.41-1.29 18.48-3.4 24.5-3.44 1.65-0.01 5.7 0.44 9 1 22.4 3.78 22.5 3.83 22.5 11.7 0 4.11-0.57 5.94-2.75 8.81-2.65 3.49-4.25 4.58-4.25 2.89z"/>
  <path id="path29039" d="m344.03 503.95c-0.55-0.23-2.99-0.94-5.41-1.56-6.37-1.64-15.45-10.51-17.7-17.29-4.75-14.3 1.59-30.57 14.34-36.76 5.96-2.9 19.56-3.28 25.41-0.71 5.73 2.51 11.95 8.77 14.55 14.64 3.56 8.03 3.9 12.84 1.47 20.81-1.71 5.63-3.02 7.76-7.37 12.04-2.91 2.87-6.98 5.91-9.05 6.77-3.72 1.54-14.31 2.89-16.24 2.06z"/>
  <path id="path29041" d="m334.34 480.15c0.4-2.06-2.49-3.46-4.01-1.93-1.53 1.52-0.13 4.41 1.93 4.01 0.96-0.18 1.89-1.12 2.08-2.08z" fill="#fff"/>
  <path id="path29043" d="m334.03 470.92c0-2.98-3.91-2.68-4.33 0.33-0.28 1.94 0.06 2.27 2 2 1.55-0.22 2.33-1 2.33-2.33z" fill="#fff"/>
  <path id="path29045" d="m343.33 462.22c3.2-3.2-0.18-7.86-4.33-5.97-3.86 1.75-2.7 7.17 1.53 7.17 0.88 0 2.14-0.54 2.8-1.2z" fill="#fff"/>
  <path id="path29047" d="m409.03 493.08c-6.49-2.15-9.93-4.29-13.81-8.57-5.58-6.19-7.03-10.32-7.04-20.09-0.02-10.15 1.68-14.11 9.02-21.11 5.99-5.71 11.46-7.89 19.83-7.89 8.36 0 13.83 2.18 19.83 7.89 7.3 6.97 9.02 10.97 9.06 21.11 0.03 7.27-0.34 9.22-2.59 13.5-1.44 2.75-4.13 6.44-5.96 8.2-6.92 6.62-19.81 9.79-28.34 6.96z"/>
  <path id="path29049" d="m401.03 462.92c0-2.98-3.91-2.68-4.33 0.33-0.28 1.94 0.06 2.27 2 2 1.55-0.22 2.33-1 2.33-2.33z" fill="#fff"/>
  <path id="path29051" d="m404.35 453.59c0.23-1.62-0.2-2.17-1.7-2.17-2.63 0-3.61 1.7-2.06 3.58 1.62 1.95 3.36 1.3 3.76-1.41z" fill="#fff"/>
  <path id="path29053" d="m414.91 448.17c1.29-2.04-0.14-5.06-2.62-5.55-1.55-0.31-4.76 2.25-4.76 3.8 0 1.54 3.21 4.1 4.76 3.8 0.84-0.17 2.02-1.09 2.62-2.05z" fill="#fff"/>
  <path id="path29055" d="m539.03 428.76c-2.75-0.81-6.8-1.87-9-2.35-5.49-1.19-10.5-3.85-10.5-5.57 0-1.9 0.71-1.8 3.66 0.53 1.36 1.07 4.58 2.25 7.16 2.62 2.57 0.38 5.15 1.05 5.73 1.51s4.06 1.4 7.75 2.1c3.68 0.7 6.7 1.62 6.7 2.05 0 1.2-6 0.74-11.5-0.89z"/>
  <path id="path29057" d="m554.03 428.42c0.34-0.55 0.81-1 1.06-1 0.24 0 0.44 0.45 0.44 1s-0.48 1-1.06 1c-0.59 0-0.78-0.45-0.44-1z"/>
  <path id="path29059" d="m258.53 412.42c0-0.55 0.45-1 1-1s1 0.45 1 1-0.45 1-1 1-1-0.45-1-1z"/>
  <path id="path29061" d="m269.53 407.42c0-0.55 0.45-1 1-1s1 0.45 1 1-0.45 1-1 1-1-0.45-1-1z"/>
  <path id="path29063" d="m275.59 405.17c0.03-0.69 1.98-2.83 4.33-4.75 2.35-1.93 5.79-5.53 7.66-8 1.86-2.48 4.42-5.58 5.67-6.89 2.07-2.17 2.28-2.21 2.28-0.48 0 1.05-2.03 4.22-4.5 7.05-2.48 2.83-4.5 5.63-4.5 6.23s-0.44 1.09-0.98 1.09-2.41 1.57-4.16 3.5c-3.2 3.52-5.92 4.57-5.8 2.25z"/>
  <path id="path29065" d="m456.53 396.42c0-0.55 0.45-1 1-1s1 0.45 1 1-0.45 1-1 1-1-0.45-1-1z"/>
  <path id="path29067" d="m442.53 394.48c-3.91-1.19-13.24-5.86-15.99-7.99-4.25-3.31-1.37-3.47 3.91-0.21 2.76 1.7 6.16 3.37 7.56 3.72 1.39 0.35 2.78 1.04 3.08 1.53 0.31 0.49 1.37 0.89 2.37 0.89s2.38 0.67 3.07 1.5c1.42 1.72 0.3 1.88-4 0.56z"/>
  <path id="path29069" d="m196.3 422.33c3.15-1.15 7.16-2.45 8.91-2.88 1.76-0.44 5.13-1.7 7.5-2.82 11.62-5.45 13.09-5.82 21.62-5.5 6.67 0.26 9.94-0.18 16.65-2.23 4.6-1.4 9.47-3.42 10.83-4.49 1.37-1.08 3.55-2.36 4.85-2.86 3.84-1.48 12.8-9.11 14.46-12.31 0.84-1.63 3.58-5.66 6.09-8.95 3.43-4.52 4.95-5.81 6.18-5.25 0.9 0.4 8.88 1.15 17.73 1.66 17.3 0.99 27.06-0.2 34.57-4.23 2.84-1.52 3.77-1.6 6.33-0.53 8.2 3.41 12.31 3.91 32.51 3.94 20.18 0.04 26.68-0.66 36.68-3.94 4.04-1.33 4.23-1.3 5.8 1.1 6.76 10.32 41.83 19.99 61.12 16.86 4.02-0.65 4.15-0.58 6.64 3.68 2.9 4.95 4.8 6.81 9.76 9.61 11.01 6.21 17.84 9.05 27.16 11.27 4.58 1.1 10.36 2.62 12.84 3.39 2.47 0.77 9.9 1.65 16.5 1.96 14.62 0.68 25.63-1.56 31.7-6.44 3.55-2.85 3.92-2.93 8.5-1.88 11.66 2.66 25.47-2.32 35.42-12.76 3.33-3.49 5.92-7.21 6.33-9.11 0.39-1.76 1.14-3.2 1.67-3.2s3.75-1.29 7.17-2.87c3.41-1.58 7.84-3.4 9.83-4.04 3.86-1.24 15.88-12.83 15.88-15.31 0-0.76 1.41-3.32 3.15-5.67 1.73-2.36 3.92-7.06 4.86-10.45 0.95-3.39 2.54-9.01 3.54-12.5 1.55-5.39 1.65-7.15 0.67-11.82-0.63-3.02-1.84-6.87-2.69-8.57-0.84-1.69-1.53-3.93-1.53-4.98 0-1.93-2.37-7.19-4.35-9.66-0.6-0.75-1.64-2.96-2.31-4.91-1.07-3.11-0.91-4.46 1.28-10.99 2.37-7.08 2.45-7.99 1.54-18.78-0.76-9.01-1.57-12.75-3.94-18.15-1.64-3.74-3.47-8.02-4.06-9.5-1.51-3.78-7.89-10.65-12.83-13.79-3.04-1.94-3.93-3.04-3.31-4.05 1.57-2.53 2.15-13.35 1-18.46-0.61-2.75-2.15-6.58-3.41-8.5-1.26-1.93-2.61-4.81-3.01-6.4-0.39-1.6-3.5-5.64-6.91-9.01-4.75-4.68-7.36-6.42-11.19-7.48-2.75-0.76-6.35-2.17-8-3.14-5.25-3.08-13.79-4.44-19.75-3.15-2.89 0.62-7.32 1.22-9.85 1.33-4.4 0.2-4.86-0.06-10.5-5.8-6.17-6.29-12.4-9.35-19.02-9.35-1.79 0-4.52-0.53-6.07-1.17-1.55-0.65-6.41-1.52-10.81-1.95-14.45-1.39-17.95-2.14-21.13-4.56-1.72-1.3-5.88-3.3-9.24-4.43-3.36-1.14-7.58-3.06-9.38-4.28-4.55-3.08-11.24-5.61-14.82-5.61-1.67 0-4.47-0.77-6.23-1.7-2.7-1.43-6.67-1.72-25.13-1.86-20.46-0.16-21.98-0.3-22.66-2.06-0.4-1.03-3.13-4.23-6.07-7.09-5.61-5.48-11.58-8.29-17.57-8.29-1.9 0-5.86-0.7-8.78-1.55-5.44-1.58-9.32-1.41-34.99 1.55-8.9 1.03-23.56 5.23-28.33 8.12-5.23 3.17-12.13 3.02-19.36-0.42-5.49-2.61-6.29-2.7-22.57-2.7-16.1 0-25.17 1.25-28.74 3.96-0.55 0.42-2.58 1-4.51 1.3-3.36 0.51-15.44 5.58-23.1 9.7-3.27 1.75-3.8 1.79-5.78 0.41-5.35-3.75-18.58-5.57-43.11-5.93-19.59-0.28-22.67 0.12-33 4.28-7.74 3.12-17.38 11.8-19.13 17.24-1.51 4.7-2.43 5.73-5.66 6.31-1.49 0.28-4.06 0.96-5.71 1.53-1.65 0.56-5.6 1.82-8.77 2.78-3.17 0.97-6.25 2.33-6.83 3.04-0.59 0.7-3.05 2.24-5.48 3.42-2.43 1.17-6.33 4.36-8.67 7.09-2.34 2.72-5.948 6.82-8.019 9.09-5.661 6.22-7.532 13.49-7.276 28.28 0.191 11.03 0 12.44-2.36 17.5-2.254 4.83-2.588 6.94-2.739 17.28-0.194 13.26-0.51 14.72-3.189 14.72-1.04 0-3.437 1.01-5.327 2.25-1.889 1.24-4.99 3.1-6.889 4.14-5.68 3.1-11.037 8.77-13.813 14.61-2.358 4.96-2.595 6.52-2.421 15.98 0.203 11.1 1.574 19.03 3.942 22.81 0.791 1.26 2.487 4.26 3.769 6.68 4.608 8.66 19.192 24.89 27.068 30.13 2.75 1.82 5.955 4.12 7.121 5.11 2.188 1.84 5.383 10.02 5.383 13.77 0 3.15 5.09 10.61 10.1 14.8 2.42 2.03 6.62 5.54 9.35 7.82 5.44 4.55 12.32 7.9 16.23 7.9 1.76 0 3.9 1.54 7.15 5.16 2.82 3.13 6.62 6.03 9.69 7.39 2.78 1.23 5.64 2.93 6.34 3.79 1.48 1.78 10.26 4.91 13.79 4.91 1.31 0 4.07 0.6 6.12 1.33 5.36 1.91 10.47 1.71 17-0.67z" fill="#fff"/>
  <path id="path29071" d="m171.68 405.42c-4.11-0.97-10.64-7.17-12.86-12.21-1.88-4.25-5.7-6.47-12.79-7.45-2.56-0.35-6.22-1.69-8.12-2.99-1.91-1.29-3.63-2.35-3.83-2.35-0.86 0-7.55-6.46-7.55-7.28 0-0.5-0.87-2.14-1.94-3.63-1.06-1.49-2.25-4.04-2.63-5.65-0.39-1.62-1.06-3.39-1.48-3.94-0.43-0.55-1.09-2.69-1.48-4.75-1.02-5.5 1.02-4.68 2.51 1 1.62 6.23 3.62 10.67 5.5 12.23 0.83 0.7 1.52 1.77 1.52 2.39 0 1.09 7.43 8.63 8.5 8.63 0.3 0 2.32 1.12 4.5 2.5 2.17 1.37 5.39 2.5 7.15 2.5 5.15 0 10.45 3.05 12.22 7.02 2.41 5.4 8.11 11.04 12.35 12.24 4.74 1.33 12.28 1.3 18.78-0.06 4.6-0.96 13.7-5.12 15.95-7.29 1.39-1.34 2.55-1.11 2.55 0.5 0 1.91-11.33 7.32-17.95 8.58-6.12 1.16-16.02 1.17-20.9 0.01z"/>
  <path id="path29073" d="m451.03 369.47c-1.65-0.41-4.7-1.71-6.78-2.9-2.08-1.18-4.35-2.15-5.04-2.15-1.87 0-12.37-11.13-13.2-14-0.4-1.38-1.21-3.1-1.8-3.84-1.15-1.44-4.56-10.21-5.4-13.91-1.13-4.94 1.38-1.85 3.65 4.5 1.32 3.71 2.95 7.2 3.62 7.75 0.66 0.55 1.49 2.23 1.84 3.74 0.88 3.76 10.8 13.3 16.47 15.84 2.55 1.15 6.95 2.58 9.77 3.18 5.03 1.08 5.33 1.01 13.93-3.33 6.32-3.19 9.51-5.47 11.36-8.14 4.08-5.89 5.89-4.28 2.13 1.89-1.39 2.28-4.55 4.48-11.13 7.75-9.3 4.62-12.78 5.27-19.42 3.62z"/>
  <path id="path29075" d="m646.53 285.4c0.01-0.82 0.9-2.83 2-4.48 2.48-3.76 2.78-15.88 0.46-18.94-0.8-1.07-1.47-2.87-1.47-4 0-4.17-9.25-15.52-14.29-17.55-2.1-0.84-2.08-0.89 0.49-0.95 1.48-0.03 2.98 0.42 3.34 1 0.37 0.58 1.75 1.48 3.08 1.98 1.33 0.51 2.88 1.94 3.43 3.19s2.12 3.8 3.48 5.67c1.36 1.86 2.48 4.35 2.48 5.52s0.72 3.16 1.59 4.41c1.25 1.79 1.53 4.23 1.25 11.2-0.31 8.17-0.58 9.16-3.09 11.67-1.85 1.85-2.75 2.27-2.75 1.28z"/>
  <path id="path29077" d="m108.73 240.22c-0.66-0.66-1.2-2.07-1.2-3.14 0-1.06-0.54-3.71-1.19-5.88-0.91-3.05-0.91-4.4 0-5.86 0.65-1.04 1.19-2.67 1.19-3.63 0-0.95 2.36-4.12 5.25-7.05l5.25-5.32v-20.83l4.96-5.05c2.73-2.77 5.32-5.04 5.75-5.04 0.44 0 3.13-1.13 5.98-2.5 2.85-1.38 5.91-2.5 6.79-2.5 0.89 0 2.13-0.52 2.76-1.15 1.59-1.59 16.26-2.48 16.26-0.98 0 0.67-1.84 1.13-4.56 1.13-9.76 0-23.52 5.66-31.44 12.94l-4.5 4.14 0.25 10.43 0.25 10.44-5.46 5.55c-3.06 3.11-5.87 7.03-6.39 8.91-1.53 5.55 0.52 13.01 4.35 15.82 0.55 0.41 0.07 0.74-1.05 0.75-1.13 0.01-2.59-0.52-3.25-1.18z"/>
  <path id="path29079" d="m417.53 148.61c0-0.44 1.35-2.93 3-5.53 5.9-9.3 3.7-11.65-14.5-15.5-9.13-1.93-12.94-2.16-20.5-1.23-11.7 1.44-14.88 2.38-24.97 7.39-9.14 4.53-12.05 5.49-12.01 3.93 0.02-0.78 13.82-7.7 19.98-10.02 3.41-1.29 18.48-3.4 24.5-3.44 1.65-0.01 5.7 0.44 9 1 22.4 3.78 22.5 3.83 22.5 11.7 0 4.11-0.57 5.94-2.75 8.81-2.65 3.49-4.25 4.58-4.25 2.89z"/>
  <path id="path29081" d="m344.03 503.95c-0.55-0.23-2.99-0.94-5.41-1.56-6.37-1.64-15.45-10.51-17.7-17.29-4.75-14.3 1.59-30.57 14.34-36.76 5.96-2.9 19.56-3.28 25.41-0.71 5.73 2.51 11.95 8.77 14.55 14.64 3.56 8.03 3.9 12.84 1.47 20.81-1.71 5.63-3.02 7.76-7.37 12.04-2.91 2.87-6.98 5.91-9.05 6.77-3.72 1.54-14.31 2.89-16.24 2.06z"/>
  <path id="path29083" d="m334.34 480.15c0.4-2.06-2.49-3.46-4.01-1.93-1.53 1.52-0.13 4.41 1.93 4.01 0.96-0.18 1.89-1.12 2.08-2.08z" fill="#fff"/>
  <path id="path29085" d="m334.03 470.92c0-2.98-3.91-2.68-4.33 0.33-0.28 1.94 0.06 2.27 2 2 1.55-0.22 2.33-1 2.33-2.33z" fill="#fff"/>
  <path id="path29087" d="m343.33 462.22c3.2-3.2-0.18-7.86-4.33-5.97-3.86 1.75-2.7 7.17 1.53 7.17 0.88 0 2.14-0.54 2.8-1.2z" fill="#fff"/>
  <path id="path29089" d="m409.03 493.08c-6.49-2.15-9.93-4.29-13.81-8.57-5.58-6.19-7.03-10.32-7.04-20.09-0.02-10.15 1.68-14.11 9.02-21.11 5.99-5.71 11.46-7.89 19.83-7.89 8.36 0 13.83 2.18 19.83 7.89 7.3 6.97 9.02 10.97 9.06 21.11 0.03 7.27-0.34 9.22-2.59 13.5-1.44 2.75-4.13 6.44-5.96 8.2-6.92 6.62-19.81 9.79-28.34 6.96z"/>
  <path id="path29091" d="m401.03 462.92c0-2.98-3.91-2.68-4.33 0.33-0.28 1.94 0.06 2.27 2 2 1.55-0.22 2.33-1 2.33-2.33z" fill="#fff"/>
  <path id="path29093" d="m404.35 453.59c0.23-1.62-0.2-2.17-1.7-2.17-2.63 0-3.61 1.7-2.06 3.58 1.62 1.95 3.36 1.3 3.76-1.41z" fill="#fff"/>
  <path id="path29095" d="m414.91 448.17c1.29-2.04-0.14-5.06-2.62-5.55-1.55-0.31-4.76 2.25-4.76 3.8 0 1.54 3.21 4.1 4.76 3.8 0.84-0.17 2.02-1.09 2.62-2.05z" fill="#fff"/>
  <path id="path29097" d="m539.03 428.76c-2.75-0.81-6.8-1.87-9-2.35-5.49-1.19-10.5-3.85-10.5-5.57 0-1.9 0.71-1.8 3.66 0.53 1.36 1.07 4.58 2.25 7.16 2.62 2.57 0.38 5.15 1.05 5.73 1.51s4.06 1.4 7.75 2.1c3.68 0.7 6.7 1.62 6.7 2.05 0 1.2-6 0.74-11.5-0.89z"/>
  <path id="path29099" d="m554.03 428.42c0.34-0.55 0.81-1 1.06-1 0.24 0 0.44 0.45 0.44 1s-0.48 1-1.06 1c-0.59 0-0.78-0.45-0.44-1z"/>
  <path id="path29101" d="m258.53 412.42c0-0.55 0.45-1 1-1s1 0.45 1 1-0.45 1-1 1-1-0.45-1-1z"/>
  <path id="path29103" d="m269.53 407.42c0-0.55 0.45-1 1-1s1 0.45 1 1-0.45 1-1 1-1-0.45-1-1z"/>
  <path id="path29105" d="m275.59 405.17c0.03-0.69 1.98-2.83 4.33-4.75 2.35-1.93 5.79-5.53 7.66-8 1.86-2.48 4.42-5.58 5.67-6.89 2.07-2.17 2.28-2.21 2.28-0.48 0 1.05-2.03 4.22-4.5 7.05-2.48 2.83-4.5 5.63-4.5 6.23s-0.44 1.09-0.98 1.09-2.41 1.57-4.16 3.5c-3.2 3.52-5.92 4.57-5.8 2.25z"/>
  <path id="path29107" d="m456.53 396.42c0-0.55 0.45-1 1-1s1 0.45 1 1-0.45 1-1 1-1-0.45-1-1z"/>
  <path id="path29109" d="m442.53 394.48c-3.91-1.19-13.24-5.86-15.99-7.99-4.25-3.31-1.37-3.47 3.91-0.21 2.76 1.7 6.16 3.37 7.56 3.72 1.39 0.35 2.78 1.04 3.08 1.53 0.31 0.49 1.37 0.89 2.37 0.89s2.38 0.67 3.07 1.5c1.42 1.72 0.3 1.88-4 0.56z"/>
  <path id="path29111" d="m196.3 422.33c3.15-1.15 7.16-2.45 8.91-2.88 1.76-0.44 5.13-1.7 7.5-2.82 11.62-5.45 13.09-5.82 21.62-5.5 6.67 0.26 9.94-0.18 16.65-2.23 4.6-1.4 9.47-3.42 10.83-4.49 1.37-1.08 3.55-2.36 4.85-2.86 3.84-1.48 12.8-9.11 14.46-12.31 0.84-1.63 3.58-5.66 6.09-8.95 3.43-4.52 4.95-5.81 6.18-5.25 0.9 0.4 8.88 1.15 17.73 1.66 17.3 0.99 27.06-0.2 34.57-4.23 2.84-1.52 3.77-1.6 6.33-0.53 8.2 3.41 12.31 3.91 32.51 3.94 20.18 0.04 26.68-0.66 36.68-3.94 4.04-1.33 4.23-1.3 5.8 1.1 6.76 10.32 41.83 19.99 61.12 16.86 4.02-0.65 4.15-0.58 6.64 3.68 2.9 4.95 4.8 6.81 9.76 9.61 11.01 6.21 17.84 9.05 27.16 11.27 4.58 1.1 10.36 2.62 12.84 3.39 2.47 0.77 9.9 1.65 16.5 1.96 14.62 0.68 25.63-1.56 31.7-6.44 3.55-2.85 3.92-2.93 8.5-1.88 11.66 2.66 25.47-2.32 35.42-12.76 3.33-3.49 5.92-7.21 6.33-9.11 0.39-1.76 1.14-3.2 1.67-3.2s3.75-1.29 7.17-2.87c3.41-1.58 7.84-3.4 9.83-4.04 3.86-1.24 15.88-12.83 15.88-15.31 0-0.76 1.41-3.32 3.15-5.67 1.73-2.36 3.92-7.06 4.86-10.45 0.95-3.39 2.54-9.01 3.54-12.5 1.55-5.39 1.65-7.15 0.67-11.82-0.63-3.02-1.84-6.87-2.69-8.57-0.84-1.69-1.53-3.93-1.53-4.98 0-1.93-2.37-7.19-4.35-9.66-0.6-0.75-1.64-2.96-2.31-4.91-1.07-3.11-0.91-4.46 1.28-10.99 2.37-7.08 2.45-7.99 1.54-18.78-0.76-9.01-1.57-12.75-3.94-18.15-1.64-3.74-3.47-8.02-4.06-9.5-1.51-3.78-7.89-10.65-12.83-13.79-3.04-1.94-3.93-3.04-3.31-4.05 1.57-2.53 2.15-13.35 1-18.46-0.61-2.75-2.15-6.58-3.41-8.5-1.26-1.93-2.61-4.81-3.01-6.4-0.39-1.6-3.5-5.64-6.91-9.01-4.75-4.68-7.36-6.42-11.19-7.48-2.75-0.76-6.35-2.17-8-3.14-5.25-3.08-13.79-4.44-19.75-3.15-2.89 0.62-7.32 1.22-9.85 1.33-4.4 0.2-4.86-0.06-10.5-5.8-6.17-6.29-12.4-9.35-19.02-9.35-1.79 0-4.52-0.53-6.07-1.17-1.55-0.65-6.41-1.52-10.81-1.95-14.45-1.39-17.95-2.14-21.13-4.56-1.72-1.3-5.88-3.3-9.24-4.43-3.36-1.14-7.58-3.06-9.38-4.28-4.55-3.08-11.24-5.61-14.82-5.61-1.67 0-4.47-0.77-6.23-1.7-2.7-1.43-6.67-1.72-25.13-1.86-20.46-0.16-21.98-0.3-22.66-2.06-0.4-1.03-3.13-4.23-6.07-7.09-5.61-5.48-11.58-8.29-17.57-8.29-1.9 0-5.86-0.7-8.78-1.55-5.44-1.58-9.32-1.41-34.99 1.55-8.9 1.03-23.56 5.23-28.33 8.12-5.23 3.17-12.13 3.02-19.36-0.42-5.49-2.61-6.29-2.7-22.57-2.7-16.1 0-25.17 1.25-28.74 3.96-0.55 0.42-2.58 1-4.51 1.3-3.36 0.51-15.44 5.58-23.1 9.7-3.27 1.75-3.8 1.79-5.78 0.41-5.35-3.75-18.58-5.57-43.11-5.93-19.59-0.28-22.67 0.12-33 4.28-7.74 3.12-17.38 11.8-19.13 17.24-1.51 4.7-2.43 5.73-5.66 6.31-1.49 0.28-4.06 0.96-5.71 1.53-1.65 0.56-5.6 1.82-8.77 2.78-3.17 0.97-6.25 2.33-6.83 3.04-0.59 0.7-3.05 2.24-5.48 3.42-2.43 1.17-6.33 4.36-8.67 7.09-2.34 2.72-5.948 6.82-8.019 9.09-5.661 6.22-7.532 13.49-7.276 28.28 0.191 11.03 0 12.44-2.36 17.5-2.254 4.83-2.588 6.94-2.739 17.28-0.194 13.26-0.51 14.72-3.189 14.72-1.04 0-3.437 1.01-5.327 2.25-1.889 1.24-4.99 3.1-6.889 4.14-5.68 3.1-11.037 8.77-13.813 14.61-2.358 4.96-2.595 6.52-2.421 15.98 0.203 11.1 1.574 19.03 3.942 22.81 0.791 1.26 2.487 4.26 3.769 6.68 4.608 8.66 19.192 24.89 27.068 30.13 2.75 1.82 5.955 4.12 7.121 5.11 2.188 1.84 5.383 10.02 5.383 13.77 0 3.15 5.09 10.61 10.1 14.8 2.42 2.03 6.62 5.54 9.35 7.82 5.44 4.55 12.32 7.9 16.23 7.9 1.76 0 3.9 1.54 7.15 5.16 2.82 3.13 6.62 6.03 9.69 7.39 2.78 1.23 5.64 2.93 6.34 3.79 1.48 1.78 10.26 4.91 13.79 4.91 1.31 0 4.07 0.6 6.12 1.33 5.36 1.91 10.47 1.71 17-0.67z" fill="#fff"/>
  <path id="path29113" d="m171.68 405.42c-4.11-0.97-10.64-7.17-12.86-12.21-1.88-4.25-5.7-6.47-12.79-7.45-2.56-0.35-6.22-1.69-8.12-2.99-1.91-1.29-3.63-2.35-3.83-2.35-0.86 0-7.55-6.46-7.55-7.28 0-0.5-0.87-2.14-1.94-3.63-1.06-1.49-2.25-4.04-2.63-5.65-0.39-1.62-1.06-3.39-1.48-3.94-0.43-0.55-1.09-2.69-1.48-4.75-1.02-5.5 1.02-4.68 2.51 1 1.62 6.23 3.62 10.67 5.5 12.23 0.83 0.7 1.52 1.77 1.52 2.39 0 1.09 7.43 8.63 8.5 8.63 0.3 0 2.32 1.12 4.5 2.5 2.17 1.37 5.39 2.5 7.15 2.5 5.15 0 10.45 3.05 12.22 7.02 2.41 5.4 8.11 11.04 12.35 12.24 4.74 1.33 12.28 1.3 18.78-0.06 4.6-0.96 13.7-5.12 15.95-7.29 1.39-1.34 2.55-1.11 2.55 0.5 0 1.91-11.33 7.32-17.95 8.58-6.12 1.16-16.02 1.17-20.9 0.01z"/>
  <path id="path29115" d="m451.03 369.47c-1.65-0.41-4.7-1.71-6.78-2.9-2.08-1.18-4.35-2.15-5.04-2.15-1.87 0-12.37-11.13-13.2-14-0.4-1.38-1.21-3.1-1.8-3.84-1.15-1.44-4.56-10.21-5.4-13.91-1.13-4.94 1.38-1.85 3.65 4.5 1.32 3.71 2.95 7.2 3.62 7.75 0.66 0.55 1.49 2.23 1.84 3.74 0.88 3.76 10.8 13.3 16.47 15.84 2.55 1.15 6.95 2.58 9.77 3.18 5.03 1.08 5.33 1.01 13.93-3.33 6.32-3.19 9.51-5.47 11.36-8.14 4.08-5.89 5.89-4.28 2.13 1.89-1.39 2.28-4.55 4.48-11.13 7.75-9.3 4.62-12.78 5.27-19.42 3.62z"/>
  <path id="path29117" d="m646.53 285.4c0.01-0.82 0.9-2.83 2-4.48 2.48-3.76 2.78-15.88 0.46-18.94-0.8-1.07-1.47-2.87-1.47-4 0-4.17-9.25-15.52-14.29-17.55-2.1-0.84-2.08-0.89 0.49-0.95 1.48-0.03 2.98 0.42 3.34 1 0.37 0.58 1.75 1.48 3.08 1.98 1.33 0.51 2.88 1.94 3.43 3.19s2.12 3.8 3.48 5.67c1.36 1.86 2.48 4.35 2.48 5.52s0.72 3.16 1.59 4.41c1.25 1.79 1.53 4.23 1.25 11.2-0.31 8.17-0.58 9.16-3.09 11.67-1.85 1.85-2.75 2.27-2.75 1.28z"/>
  <path id="path29119" d="m108.73 240.22c-0.66-0.66-1.2-2.07-1.2-3.14 0-1.06-0.54-3.71-1.19-5.88-0.91-3.05-0.91-4.4 0-5.86 0.65-1.04 1.19-2.67 1.19-3.63 0-0.95 2.36-4.12 5.25-7.05l5.25-5.32v-20.83l4.96-5.05c2.73-2.77 5.32-5.04 5.75-5.04 0.44 0 3.13-1.13 5.98-2.5 2.85-1.38 5.91-2.5 6.79-2.5 0.89 0 2.13-0.52 2.76-1.15 1.59-1.59 16.26-2.48 16.26-0.98 0 0.67-1.84 1.13-4.56 1.13-9.76 0-23.52 5.66-31.44 12.94l-4.5 4.14 0.25 10.43 0.25 10.44-5.46 5.55c-3.06 3.11-5.87 7.03-6.39 8.91-1.53 5.55 0.52 13.01 4.35 15.82 0.55 0.41 0.07 0.74-1.05 0.75-1.13 0.01-2.59-0.52-3.25-1.18z"/>
  <path id="path29121" d="m417.53 148.61c0-0.44 1.35-2.93 3-5.53 5.9-9.3 3.7-11.65-14.5-15.5-9.13-1.93-12.94-2.16-20.5-1.23-11.7 1.44-14.88 2.38-24.97 7.39-9.14 4.53-12.05 5.49-12.01 3.93 0.02-0.78 13.82-7.7 19.98-10.02 3.41-1.29 18.48-3.4 24.5-3.44 1.65-0.01 5.7 0.44 9 1 22.4 3.78 22.5 3.83 22.5 11.7 0 4.11-0.57 5.94-2.75 8.81-2.65 3.49-4.25 4.58-4.25 2.89z"/>
  <path id="path29123" d="m344.03 503.95c-0.55-0.23-2.99-0.94-5.41-1.56-6.37-1.64-15.45-10.51-17.7-17.29-4.75-14.3 1.59-30.57 14.34-36.76 5.96-2.9 19.56-3.28 25.41-0.71 5.73 2.51 11.95 8.77 14.55 14.64 3.56 8.03 3.9 12.84 1.47 20.81-1.71 5.63-3.02 7.76-7.37 12.04-2.91 2.87-6.98 5.91-9.05 6.77-3.72 1.54-14.31 2.89-16.24 2.06z"/>
  <path id="path29125" d="m334.34 480.15c0.4-2.06-2.49-3.46-4.01-1.93-1.53 1.52-0.13 4.41 1.93 4.01 0.96-0.18 1.89-1.12 2.08-2.08z" fill="#fff"/>
  <path id="path29127" d="m334.03 470.92c0-2.98-3.91-2.68-4.33 0.33-0.28 1.94 0.06 2.27 2 2 1.55-0.22 2.33-1 2.33-2.33z" fill="#fff"/>
  <path id="path29129" d="m343.33 462.22c3.2-3.2-0.18-7.86-4.33-5.97-3.86 1.75-2.7 7.17 1.53 7.17 0.88 0 2.14-0.54 2.8-1.2z" fill="#fff"/>
  <path id="path29131" d="m409.03 493.08c-6.49-2.15-9.93-4.29-13.81-8.57-5.58-6.19-7.03-10.32-7.04-20.09-0.02-10.15 1.68-14.11 9.02-21.11 5.99-5.71 11.46-7.89 19.83-7.89 8.36 0 13.83 2.18 19.83 7.89 7.3 6.97 9.02 10.97 9.06 21.11 0.03 7.27-0.34 9.22-2.59 13.5-1.44 2.75-4.13 6.44-5.96 8.2-6.92 6.62-19.81 9.79-28.34 6.96z"/>
  <path id="path29133" d="m401.03 462.92c0-2.98-3.91-2.68-4.33 0.33-0.28 1.94 0.06 2.27 2 2 1.55-0.22 2.33-1 2.33-2.33z" fill="#fff"/>
  <path id="path29135" d="m404.35 453.59c0.23-1.62-0.2-2.17-1.7-2.17-2.63 0-3.61 1.7-2.06 3.58 1.62 1.95 3.36 1.3 3.76-1.41z" fill="#fff"/>
  <path id="path29137" d="m414.91 448.17c1.29-2.04-0.14-5.06-2.62-5.55-1.55-0.31-4.76 2.25-4.76 3.8 0 1.54 3.21 4.1 4.76 3.8 0.84-0.17 2.02-1.09 2.62-2.05z" fill="#fff"/>
  <path id="path29139" d="m539.03 428.76c-2.75-0.81-6.8-1.87-9-2.35-5.49-1.19-10.5-3.85-10.5-5.57 0-1.9 0.71-1.8 3.66 0.53 1.36 1.07 4.58 2.25 7.16 2.62 2.57 0.38 5.15 1.05 5.73 1.51s4.06 1.4 7.75 2.1c3.68 0.7 6.7 1.62 6.7 2.05 0 1.2-6 0.74-11.5-0.89z"/>
  <path id="path29141" d="m554.03 428.42c0.34-0.55 0.81-1 1.06-1 0.24 0 0.44 0.45 0.44 1s-0.48 1-1.06 1c-0.59 0-0.78-0.45-0.44-1z"/>
  <path id="path29143" d="m258.53 412.42c0-0.55 0.45-1 1-1s1 0.45 1 1-0.45 1-1 1-1-0.45-1-1z"/>
  <path id="path29145" d="m269.53 407.42c0-0.55 0.45-1 1-1s1 0.45 1 1-0.45 1-1 1-1-0.45-1-1z"/>
  <path id="path29147" d="m275.59 405.17c0.03-0.69 1.98-2.83 4.33-4.75 2.35-1.93 5.79-5.53 7.66-8 1.86-2.48 4.42-5.58 5.67-6.89 2.07-2.17 2.28-2.21 2.28-0.48 0 1.05-2.03 4.22-4.5 7.05-2.48 2.83-4.5 5.63-4.5 6.23s-0.44 1.09-0.98 1.09-2.41 1.57-4.16 3.5c-3.2 3.52-5.92 4.57-5.8 2.25z"/>
  <path id="path29149" d="m456.53 396.42c0-0.55 0.45-1 1-1s1 0.45 1 1-0.45 1-1 1-1-0.45-1-1z"/>
  <path id="path29151" d="m442.53 394.48c-3.91-1.19-13.24-5.86-15.99-7.99-4.25-3.31-1.37-3.47 3.91-0.21 2.76 1.7 6.16 3.37 7.56 3.72 1.39 0.35 2.78 1.04 3.08 1.53 0.31 0.49 1.37 0.89 2.37 0.89s2.38 0.67 3.07 1.5c1.42 1.72 0.3 1.88-4 0.56z"/>
  <path id="path29153" stroke="#000" fill="#fff" d="m196.3 422.33c3.15-1.15 7.16-2.45 8.91-2.88 1.76-0.44 5.13-1.7 7.5-2.82 11.62-5.45 13.09-5.82 21.62-5.5 6.67 0.26 9.94-0.18 16.65-2.23 4.6-1.4 9.47-3.42 10.83-4.49 1.37-1.08 3.55-2.36 4.85-2.86 3.84-1.48 12.8-9.11 14.46-12.31 0.84-1.63 3.58-5.66 6.09-8.95 3.43-4.52 4.95-5.81 6.18-5.25 0.9 0.4 8.88 1.15 17.73 1.66 17.3 0.99 27.06-0.2 34.57-4.23 2.84-1.52 3.77-1.6 6.33-0.53 8.2 3.41 12.31 3.91 32.51 3.94 20.18 0.04 26.68-0.66 36.68-3.94 4.04-1.33 4.23-1.3 5.8 1.1 6.76 10.32 41.83 19.99 61.12 16.86 4.02-0.65 4.15-0.58 6.64 3.68 2.9 4.95 4.8 6.81 9.76 9.61 11.01 6.21 17.84 9.05 27.16 11.27 4.58 1.1 10.36 2.62 12.84 3.39 2.47 0.77 9.9 1.65 16.5 1.96 14.62 0.68 25.63-1.56 31.7-6.44 3.55-2.85 3.92-2.93 8.5-1.88 11.66 2.66 25.47-2.32 35.42-12.76 3.33-3.49 5.92-7.21 6.33-9.11 0.39-1.76 1.14-3.2 1.67-3.2s3.75-1.29 7.17-2.87c3.41-1.58 7.84-3.4 9.83-4.04 3.86-1.24 15.88-12.83 15.88-15.31 0-0.76 1.41-3.32 3.15-5.67 1.73-2.36 3.92-7.06 4.86-10.45 0.95-3.39 2.54-9.01 3.54-12.5 1.55-5.39 1.65-7.15 0.67-11.82-0.63-3.02-1.84-6.87-2.69-8.57-0.84-1.69-1.53-3.93-1.53-4.98 0-1.93-2.37-7.19-4.35-9.66-0.6-0.75-1.64-2.96-2.31-4.91-1.07-3.11-0.91-4.46 1.28-10.99 2.37-7.08 2.45-7.99 1.54-18.78-0.76-9.01-1.57-12.75-3.94-18.15-1.64-3.74-3.47-8.02-4.06-9.5-1.51-3.78-7.89-10.65-12.83-13.79-3.04-1.94-3.93-3.04-3.31-4.05 1.57-2.53 2.15-13.35 1-18.46-0.61-2.75-2.15-6.58-3.41-8.5-1.26-1.93-2.61-4.81-3.01-6.4-0.39-1.6-3.5-5.64-6.91-9.01-4.75-4.68-7.36-6.42-11.19-7.48-2.75-0.76-6.35-2.17-8-3.14-5.25-3.08-13.79-4.44-19.75-3.15-2.89 0.62-7.32 1.22-9.85 1.33-4.4 0.2-4.86-0.06-10.5-5.8-6.17-6.29-12.4-9.35-19.02-9.35-1.79 0-4.52-0.53-6.07-1.17-1.55-0.65-6.41-1.52-10.81-1.95-14.45-1.39-17.95-2.14-21.13-4.56-1.72-1.3-5.88-3.3-9.24-4.43-3.36-1.14-7.58-3.06-9.38-4.28-4.55-3.08-11.24-5.61-14.82-5.61-1.67 0-4.47-0.77-6.23-1.7-2.7-1.43-6.67-1.72-25.13-1.86-20.46-0.16-21.98-0.3-22.66-2.06-0.4-1.03-3.13-4.23-6.07-7.09-5.61-5.48-11.58-8.29-17.57-8.29-1.9 0-5.86-0.7-8.78-1.55-5.44-1.58-9.32-1.41-34.99 1.55-8.9 1.03-23.56 5.23-28.33 8.12-5.23 3.17-12.13 3.02-19.36-0.42-5.49-2.61-6.29-2.7-22.57-2.7-16.1 0-25.17 1.25-28.74 3.96-0.55 0.42-2.58 1-4.51 1.3-3.36 0.51-15.44 5.58-23.1 9.7-3.27 1.75-3.8 1.79-5.78 0.41-5.35-3.75-18.58-5.57-43.11-5.93-19.59-0.28-22.67 0.12-33 4.28-7.74 3.12-17.38 11.8-19.13 17.24-1.51 4.7-2.43 5.73-5.66 6.31-1.49 0.28-4.06 0.96-5.71 1.53-1.65 0.56-5.6 1.82-8.77 2.78-3.17 0.97-6.25 2.33-6.83 3.04-0.59 0.7-3.05 2.24-5.48 3.42-2.43 1.17-6.33 4.36-8.67 7.09-2.34 2.72-5.948 6.82-8.019 9.09-5.661 6.22-7.532 13.49-7.276 28.28 0.191 11.03 0 12.44-2.36 17.5-2.254 4.83-2.588 6.94-2.739 17.28-0.194 13.26-0.51 14.72-3.189 14.72-1.04 0-3.437 1.01-5.327 2.25-1.889 1.24-4.99 3.1-6.889 4.14-5.68 3.1-11.037 8.77-13.813 14.61-2.358 4.96-2.595 6.52-2.421 15.98 0.203 11.1 1.574 19.03 3.942 22.81 0.791 1.26 2.487 4.26 3.769 6.68 4.608 8.66 19.192 24.89 27.068 30.13 2.75 1.82 5.955 4.12 7.121 5.11 2.188 1.84 5.383 10.02 5.383 13.77 0 3.15 5.09 10.61 10.1 14.8 2.42 2.03 6.62 5.54 9.35 7.82 5.44 4.55 12.32 7.9 16.23 7.9 1.76 0 3.9 1.54 7.15 5.16 2.82 3.13 6.62 6.03 9.69 7.39 2.78 1.23 5.64 2.93 6.34 3.79 1.48 1.78 10.26 4.91 13.79 4.91 1.31 0 4.07 0.6 6.12 1.33 5.36 1.91 10.47 1.71 17-0.67z"/>
  <path id="path29155" d="m171.68 405.42c-4.11-0.97-10.64-7.17-12.86-12.21-1.88-4.25-5.7-6.47-12.79-7.45-2.56-0.35-6.22-1.69-8.12-2.99-1.91-1.29-3.63-2.35-3.83-2.35-0.86 0-7.55-6.46-7.55-7.28 0-0.5-0.87-2.14-1.94-3.63-1.06-1.49-2.25-4.04-2.63-5.65-0.39-1.62-1.06-3.39-1.48-3.94-0.43-0.55-1.09-2.69-1.48-4.75-1.02-5.5 1.02-4.68 2.51 1 1.62 6.23 3.62 10.67 5.5 12.23 0.83 0.7 1.52 1.77 1.52 2.39 0 1.09 7.43 8.63 8.5 8.63 0.3 0 2.32 1.12 4.5 2.5 2.17 1.37 5.39 2.5 7.15 2.5 5.15 0 10.45 3.05 12.22 7.02 2.41 5.4 8.11 11.04 12.35 12.24 4.74 1.33 12.28 1.3 18.78-0.06 4.6-0.96 13.7-5.12 15.95-7.29 1.39-1.34 2.55-1.11 2.55 0.5 0 1.91-11.33 7.32-17.95 8.58-6.12 1.16-16.02 1.17-20.9 0.01z"/>
  <path id="path29157" d="m451.03 369.47c-1.65-0.41-4.7-1.71-6.78-2.9-2.08-1.18-4.35-2.15-5.04-2.15-1.87 0-12.37-11.13-13.2-14-0.4-1.38-1.21-3.1-1.8-3.84-1.15-1.44-4.56-10.21-5.4-13.91-1.13-4.94 1.38-1.85 3.65 4.5 1.32 3.71 2.95 7.2 3.62 7.75 0.66 0.55 1.49 2.23 1.84 3.74 0.88 3.76 10.8 13.3 16.47 15.84 2.55 1.15 6.95 2.58 9.77 3.18 5.03 1.08 5.33 1.01 13.93-3.33 6.32-3.19 9.51-5.47 11.36-8.14 4.08-5.89 5.89-4.28 2.13 1.89-1.39 2.28-4.55 4.48-11.13 7.75-9.3 4.62-12.78 5.27-19.42 3.62z"/>
  <path id="path29159" d="m646.53 285.4c0.01-0.82 0.9-2.83 2-4.48 2.48-3.76 2.78-15.88 0.46-18.94-0.8-1.07-1.47-2.87-1.47-4 0-4.17-9.25-15.52-14.29-17.55-2.1-0.84-2.08-0.89 0.49-0.95 1.48-0.03 2.98 0.42 3.34 1 0.37 0.58 1.75 1.48 3.08 1.98 1.33 0.51 2.88 1.94 3.43 3.19s2.12 3.8 3.48 5.67c1.36 1.86 2.48 4.35 2.48 5.52s0.72 3.16 1.59 4.41c1.25 1.79 1.53 4.23 1.25 11.2-0.31 8.17-0.58 9.16-3.09 11.67-1.85 1.85-2.75 2.27-2.75 1.28z"/>
  <path id="path29161" d="m108.73 240.22c-0.66-0.66-1.2-2.07-1.2-3.14 0-1.06-0.54-3.71-1.19-5.88-0.91-3.05-0.91-4.4 0-5.86 0.65-1.04 1.19-2.67 1.19-3.63 0-0.95 2.36-4.12 5.25-7.05l5.25-5.32v-20.83l4.96-5.05c2.73-2.77 5.32-5.04 5.75-5.04 0.44 0 3.13-1.13 5.98-2.5 2.85-1.38 5.91-2.5 6.79-2.5 0.89 0 2.13-0.52 2.76-1.15 1.59-1.59 16.26-2.48 16.26-0.98 0 0.67-1.84 1.13-4.56 1.13-9.76 0-23.52 5.66-31.44 12.94l-4.5 4.14 0.25 10.43 0.25 10.44-5.46 5.55c-3.06 3.11-5.87 7.03-6.39 8.91-1.53 5.55 0.52 13.01 4.35 15.82 0.55 0.41 0.07 0.74-1.05 0.75-1.13 0.01-2.59-0.52-3.25-1.18z"/>
  <path id="path29163" d="m417.53 148.61c0-0.44 1.35-2.93 3-5.53 5.9-9.3 3.7-11.65-14.5-15.5-9.13-1.93-12.94-2.16-20.5-1.23-11.7 1.44-14.88 2.38-24.97 7.39-9.14 4.53-12.05 5.49-12.01 3.93 0.02-0.78 13.82-7.7 19.98-10.02 3.41-1.29 18.48-3.4 24.5-3.44 1.65-0.01 5.7 0.44 9 1 22.4 3.78 22.5 3.83 22.5 11.7 0 4.11-0.57 5.94-2.75 8.81-2.65 3.49-4.25 4.58-4.25 2.89z"/>
  <metadata>
    <rdf:RDF>
      <cc:Work>
        <dc:format>image/svg+xml</dc:format>
        <dc:type rdf:resource="http://purl.org/dc/dcmitype/StillImage"/>
        <cc:license rdf:resource="http://creativecommons.org/licenses/publicdomain/"/>
        <dc:publisher>
          <cc:Agent rdf:about="http://openclipart.org/">
            <dc:title>Openclipart</dc:title>
          </cc:Agent>
        </dc:publisher>
        <dc:title>dogface3</dc:title>
        <dc:date>2006-10-12T18:48:51</dc:date>
        <dc:description>white poodle face</dc:description>
        <dc:source>http://openclipart.org/detail/548/dogface3-by-theobroma</dc:source>
        <dc:creator>
          <cc:Agent>
            <dc:title>theobroma</dc:title>
          </cc:Agent>
        </dc:creator>
        <dc:subject>
          <rdf:Bag>
            <rdf:li>animal</rdf:li>
            <rdf:li>clip art</rdf:li>
            <rdf:li>clipart</rdf:li>
            <rdf:li>dog</rdf:li>
            <rdf:li>pet</rdf:li>
            <rdf:li>poodle</rdf:li>
            <rdf:li>remix</rdf:li>
            <rdf:li>white</rdf:li>
            <rdf:li>worldlabel</rdf:li>
          </rdf:Bag>
        </dc:subject>
      </cc:Work>
      <cc:License rdf:about="http://creativecommons.org/licenses/publicdomain/">
        <cc:permits rdf:resource="http://creativecommons.org/ns#Reproduction"/>
        <cc:permits rdf:resource="http://creativecommons.org/ns#Distribution"/>
        <cc:permits rdf:resource="http://creativecommons.org/ns#DerivativeWorks"/>
      </cc:License>
    </rdf:RDF>
  </metadata>
</svg>
